<svg xmlns="http://www.w3.org/2000/svg" xmlns:xlink="http://www.w3.org/1999/xlink" width="1567" zoomAndPan="magnify" viewBox="0 0 1175.25 776.249981" height="1035" preserveAspectRatio="xMidYMid meet" version="1.0"><defs><g/></defs><g fill="#ffffff" fill-opacity="1"><g transform="translate(48.804519, 494.047544)"><g><path d="M 138.300781 -85.957031 C 138.300781 -118.96875 115.25 -141.425781 81.792969 -141.425781 C 40.449219 -141.425781 13.980469 -109.152344 13.980469 -67.21875 C 13.980469 -24.539062 40.894531 3.273438 81.792969 3.273438 C 112.722656 3.273438 136.21875 -15.613281 138.597656 -39.261719 C 138.746094 -41.789062 137.855469 -43.871094 135.328125 -43.871094 C 133.542969 -43.871094 132.351562 -42.828125 131.015625 -40.152344 C 126.40625 -23.941406 109.304688 -11.898438 87.589844 -11.898438 C 56.214844 -11.898438 34.5 -33.90625 34.203125 -74.207031 L 124.175781 -74.207031 C 133.394531 -74.207031 138.300781 -78.222656 138.300781 -85.957031 Z M 79.261719 -132.652344 C 101.71875 -132.652344 116.144531 -114.953125 116.144531 -88.1875 C 116.144531 -84.023438 113.765625 -81.941406 108.855469 -81.941406 L 34.5 -81.941406 C 36.878906 -112.425781 54.429688 -132.652344 79.261719 -132.652344 Z M 79.261719 -132.652344 "/></g></g></g><g fill="#ffffff" fill-opacity="1"><g transform="translate(200.776201, 494.047544)"><g><path d="M 183.808594 -50.414062 C 183.808594 -75.546875 162.246094 -94.878906 126.105469 -99.191406 C 157.039062 -106.179688 171.910156 -125.957031 171.910156 -149.605469 C 171.910156 -184.402344 142.910156 -208.195312 90.417969 -208.195312 L 23.496094 -208.195312 C 19.628906 -208.195312 17.992188 -206.707031 17.992188 -204.328125 C 17.992188 -202.097656 19.332031 -200.613281 23.050781 -199.867188 L 34.054688 -198.082031 C 38.8125 -197.191406 41.492188 -194.664062 41.492188 -190.648438 L 41.492188 -17.546875 C 41.492188 -13.53125 38.8125 -11.003906 34.054688 -10.113281 L 23.050781 -8.328125 C 19.332031 -7.585938 17.992188 -6.097656 17.992188 -3.867188 C 17.992188 -1.488281 19.628906 0 23.496094 0 L 109.601562 0 C 157.929688 0 183.808594 -20.96875 183.808594 -50.414062 Z M 87.886719 -199.570312 C 127.742188 -199.570312 148.265625 -178.898438 148.265625 -148.859375 C 148.265625 -120.308594 129.972656 -101.867188 98.59375 -101.867188 L 64.839844 -101.867188 L 64.839844 -199.570312 Z M 99.191406 -93.835938 C 139.195312 -93.835938 159.121094 -76.140625 159.121094 -50.710938 C 159.121094 -26.171875 141.425781 -8.625 105.4375 -8.625 L 81.792969 -8.625 C 70.191406 -8.625 64.839844 -12.492188 64.839844 -20.375 L 64.839844 -93.835938 Z M 99.191406 -93.835938 "/></g></g></g><g fill="#ffffff" fill-opacity="1"><g transform="translate(393.343066, 494.047544)"><g><path d="M 17.695312 -30.785156 C 17.695312 -9.515625 34.796875 3.273438 59.1875 3.273438 C 76.734375 3.273438 93.539062 -3.570312 105.882812 -15.761719 C 106.625 -2.824219 114.0625 3.273438 127 3.273438 C 140.085938 3.273438 147.074219 -5.503906 147.074219 -12.640625 C 147.074219 -14.871094 146.183594 -16.0625 144.695312 -16.0625 C 143.210938 -16.0625 142.316406 -15.019531 141.425781 -13.832031 C 139.9375 -11.597656 138.449219 -8.476562 132.949219 -8.476562 C 128.488281 -8.476562 125.660156 -11.300781 125.660156 -18.589844 L 125.660156 -102.164062 C 125.660156 -125.957031 110.640625 -141.277344 79.5625 -141.277344 C 45.65625 -141.277344 24.835938 -123.132812 24.835938 -105.289062 C 24.835938 -98.445312 29 -93.984375 35.839844 -93.984375 C 43.574219 -93.984375 48.628906 -97.851562 48.628906 -105.140625 L 48.628906 -115.25 C 48.628906 -125.363281 57.253906 -134.136719 75.546875 -134.136719 C 94.28125 -134.136719 104.839844 -123.28125 104.839844 -102.910156 L 104.839844 -64.390625 C 96.066406 -67.515625 85.507812 -69.746094 73.910156 -69.746094 C 38.8125 -69.746094 17.695312 -53.089844 17.695312 -30.785156 Z M 39.855469 -33.90625 C 39.855469 -51.453125 53.535156 -62.609375 76.585938 -62.609375 C 87.144531 -62.609375 96.363281 -60.226562 104.839844 -57.105469 L 104.839844 -23.644531 C 94.433594 -13.085938 80.898438 -7.4375 67.070312 -7.4375 C 51.304688 -7.4375 39.855469 -16.953125 39.855469 -33.90625 Z M 39.855469 -33.90625 "/></g></g></g><g fill="#ffffff" fill-opacity="1"><g transform="translate(549.627067, 494.047544)"><g><path d="M 121.644531 -127.148438 C 124.175781 -130.71875 125.214844 -132.949219 125.214844 -134.882812 C 125.214844 -137.410156 123.578125 -138.898438 118.523438 -138.898438 L 39.261719 -138.898438 C 32.566406 -138.898438 30.1875 -142.613281 26.917969 -142.613281 C 24.238281 -142.613281 22.605469 -141.128906 21.414062 -135.921875 L 15.019531 -108.113281 C 14.277344 -104.992188 15.613281 -102.910156 18.441406 -102.609375 C 20.820312 -102.164062 22.457031 -103.207031 24.089844 -106.476562 L 28.703125 -116.144531 C 34.351562 -127.445312 38.367188 -130.570312 49.371094 -130.570312 L 100.378906 -130.570312 L 13.679688 -11.597656 C 11.152344 -8.03125 10.113281 -5.949219 10.113281 -3.867188 C 10.113281 -1.488281 11.75 0 16.804688 0 L 100.675781 0 C 107.519531 0 110.195312 4.164062 113.46875 4.164062 C 115.996094 4.164062 117.332031 2.675781 118.671875 -2.230469 L 127.296875 -35.988281 C 128.039062 -38.960938 126.851562 -41.042969 124.175781 -41.191406 C 122.09375 -41.492188 120.308594 -40.597656 118.523438 -37.476562 L 110.9375 -23.644531 C 103.652344 -10.558594 100.082031 -8.179688 88.78125 -8.179688 L 34.945312 -8.179688 Z M 121.644531 -127.148438 "/></g></g></g><g fill="#ffffff" fill-opacity="1"><g transform="translate(686.133932, 494.047544)"><g><path d="M 17.695312 -30.785156 C 17.695312 -9.515625 34.796875 3.273438 59.1875 3.273438 C 76.734375 3.273438 93.539062 -3.570312 105.882812 -15.761719 C 106.625 -2.824219 114.0625 3.273438 127 3.273438 C 140.085938 3.273438 147.074219 -5.503906 147.074219 -12.640625 C 147.074219 -14.871094 146.183594 -16.0625 144.695312 -16.0625 C 143.210938 -16.0625 142.316406 -15.019531 141.425781 -13.832031 C 139.9375 -11.597656 138.449219 -8.476562 132.949219 -8.476562 C 128.488281 -8.476562 125.660156 -11.300781 125.660156 -18.589844 L 125.660156 -102.164062 C 125.660156 -125.957031 110.640625 -141.277344 79.5625 -141.277344 C 45.65625 -141.277344 24.835938 -123.132812 24.835938 -105.289062 C 24.835938 -98.445312 29 -93.984375 35.839844 -93.984375 C 43.574219 -93.984375 48.628906 -97.851562 48.628906 -105.140625 L 48.628906 -115.25 C 48.628906 -125.363281 57.253906 -134.136719 75.546875 -134.136719 C 94.28125 -134.136719 104.839844 -123.28125 104.839844 -102.910156 L 104.839844 -64.390625 C 96.066406 -67.515625 85.507812 -69.746094 73.910156 -69.746094 C 38.8125 -69.746094 17.695312 -53.089844 17.695312 -30.785156 Z M 39.855469 -33.90625 C 39.855469 -51.453125 53.535156 -62.609375 76.585938 -62.609375 C 87.144531 -62.609375 96.363281 -60.226562 104.839844 -57.105469 L 104.839844 -23.644531 C 94.433594 -13.085938 80.898438 -7.4375 67.070312 -7.4375 C 51.304688 -7.4375 39.855469 -16.953125 39.855469 -33.90625 Z M 39.855469 -33.90625 "/></g></g></g><g fill="#ffffff" fill-opacity="1"><g transform="translate(842.417933, 494.047544)"><g><path d="M 17.695312 -30.785156 C 17.695312 -9.515625 34.796875 3.273438 59.1875 3.273438 C 76.734375 3.273438 93.539062 -3.570312 105.882812 -15.761719 C 106.625 -2.824219 114.0625 3.273438 127 3.273438 C 140.085938 3.273438 147.074219 -5.503906 147.074219 -12.640625 C 147.074219 -14.871094 146.183594 -16.0625 144.695312 -16.0625 C 143.210938 -16.0625 142.316406 -15.019531 141.425781 -13.832031 C 139.9375 -11.597656 138.449219 -8.476562 132.949219 -8.476562 C 128.488281 -8.476562 125.660156 -11.300781 125.660156 -18.589844 L 125.660156 -102.164062 C 125.660156 -125.957031 110.640625 -141.277344 79.5625 -141.277344 C 45.65625 -141.277344 24.835938 -123.132812 24.835938 -105.289062 C 24.835938 -98.445312 29 -93.984375 35.839844 -93.984375 C 43.574219 -93.984375 48.628906 -97.851562 48.628906 -105.140625 L 48.628906 -115.25 C 48.628906 -125.363281 57.253906 -134.136719 75.546875 -134.136719 C 94.28125 -134.136719 104.839844 -123.28125 104.839844 -102.910156 L 104.839844 -64.390625 C 96.066406 -67.515625 85.507812 -69.746094 73.910156 -69.746094 C 38.8125 -69.746094 17.695312 -53.089844 17.695312 -30.785156 Z M 39.855469 -33.90625 C 39.855469 -51.453125 53.535156 -62.609375 76.585938 -62.609375 C 87.144531 -62.609375 96.363281 -60.226562 104.839844 -57.105469 L 104.839844 -23.644531 C 94.433594 -13.085938 80.898438 -7.4375 67.070312 -7.4375 C 51.304688 -7.4375 39.855469 -16.953125 39.855469 -33.90625 Z M 39.855469 -33.90625 "/></g></g></g><g fill="#ffffff" fill-opacity="1"><g transform="translate(998.701984, 494.047544)"><g><path d="M 54.875 -133.839844 C 54.578125 -138.152344 53.089844 -139.789062 49.96875 -139.789062 C 48.035156 -139.789062 45.207031 -139.34375 39.410156 -137.261719 L 18.144531 -129.972656 C 14.425781 -128.785156 13.234375 -127.59375 13.234375 -125.660156 C 13.234375 -123.875 14.425781 -122.835938 17.695312 -122.539062 L 30.039062 -122.242188 C 33.460938 -122.09375 34.796875 -120.308594 34.796875 -116.441406 L 34.796875 -17.25 C 34.796875 -12.640625 32.417969 -10.261719 28.105469 -9.367188 L 19.925781 -7.734375 C 16.65625 -6.988281 15.167969 -5.800781 15.167969 -3.71875 C 15.167969 -1.339844 16.953125 0 20.375 0 L 77.179688 0 C 80.75 0 82.683594 -1.339844 82.683594 -3.71875 C 82.683594 -6.246094 80.898438 -7.4375 77.328125 -8.03125 L 63.203125 -9.667969 C 58.144531 -10.410156 55.765625 -12.789062 55.765625 -17.25 L 55.765625 -75.84375 C 55.765625 -110.640625 72.125 -128.488281 87.589844 -128.488281 C 95.621094 -128.488281 98.894531 -125.066406 98.894531 -117.78125 L 98.894531 -113.167969 C 98.894531 -105.734375 103.207031 -101.421875 110.195312 -101.421875 C 117.035156 -101.421875 121.792969 -107.070312 121.792969 -116.738281 C 121.792969 -131.609375 111.683594 -141.425781 94.730469 -141.425781 C 78.816406 -141.425781 63.203125 -129.378906 55.46875 -107.519531 Z M 54.875 -133.839844 "/></g></g></g></svg>