<svg xmlns="http://www.w3.org/2000/svg" xmlns:xlink="http://www.w3.org/1999/xlink" width="1280" zoomAndPan="magnify" viewBox="0 0 960 540.000001" height="720" preserveAspectRatio="xMidYMid meet" version="1.0"><defs><g/><clipPath id="b2c2d14ff7"><path d="M 825 312 L 848 312 L 848 335.0625 L 825 335.0625 Z M 825 312 " clip-rule="nonzero"/></clipPath><clipPath id="d997b1d6d1"><path d="M 685 312 L 708 312 L 708 335.0625 L 685 335.0625 Z M 685 312 " clip-rule="nonzero"/></clipPath><clipPath id="880fdedc8b"><path d="M 670.699219 161 L 693 161 L 693 169 L 670.699219 169 Z M 670.699219 161 " clip-rule="nonzero"/></clipPath><clipPath id="9836a93f13"><path d="M 845 132.1875 L 872 132.1875 L 872 147 L 845 147 Z M 845 132.1875 " clip-rule="nonzero"/></clipPath></defs><path fill="#f28a8d" d="M 846.726562 323.980469 C 846.726562 324.667969 846.65625 325.347656 846.523438 326.023438 C 846.386719 326.699219 846.1875 327.355469 845.925781 327.988281 C 845.660156 328.625 845.335938 329.230469 844.953125 329.800781 C 844.570312 330.375 844.136719 330.902344 843.648438 331.390625 C 843.160156 331.875 842.628906 332.308594 842.054688 332.691406 C 841.480469 333.074219 840.875 333.398438 840.238281 333.660156 C 839.601562 333.925781 838.945312 334.121094 838.265625 334.257812 C 837.589844 334.390625 836.90625 334.457031 836.21875 334.457031 C 835.527344 334.457031 834.84375 334.390625 834.167969 334.257812 C 833.492188 334.121094 832.832031 333.925781 832.195312 333.660156 C 831.558594 333.398438 830.953125 333.074219 830.378906 332.691406 C 829.804688 332.308594 829.277344 331.875 828.789062 331.390625 C 828.300781 330.902344 827.863281 330.375 827.480469 329.800781 C 827.097656 329.230469 826.773438 328.625 826.511719 327.988281 C 826.246094 327.355469 826.046875 326.699219 825.910156 326.023438 C 825.777344 325.347656 825.710938 324.667969 825.710938 323.980469 C 825.710938 323.292969 825.777344 322.609375 825.910156 321.933594 C 826.046875 321.261719 826.246094 320.605469 826.511719 319.96875 C 826.773438 319.332031 827.097656 318.730469 827.480469 318.15625 C 827.863281 317.585938 828.300781 317.054688 828.789062 316.570312 C 829.277344 316.082031 829.804688 315.648438 830.378906 315.265625 C 830.953125 314.882812 831.558594 314.5625 832.195312 314.296875 C 832.832031 314.035156 833.492188 313.835938 834.167969 313.703125 C 834.84375 313.566406 835.527344 313.5 836.21875 313.5 C 836.90625 313.5 837.589844 313.566406 838.265625 313.703125 C 838.945312 313.835938 839.601562 314.035156 840.238281 314.296875 C 840.875 314.5625 841.480469 314.882812 842.054688 315.265625 C 842.628906 315.648438 843.160156 316.082031 843.648438 316.570312 C 844.136719 317.054688 844.570312 317.585938 844.953125 318.15625 C 845.335938 318.730469 845.660156 319.332031 845.925781 319.96875 C 846.1875 320.605469 846.386719 321.261719 846.523438 321.933594 C 846.65625 322.609375 846.726562 323.292969 846.726562 323.980469 Z M 846.726562 323.980469 " fill-opacity="1" fill-rule="nonzero"/><g clip-path="url(#b2c2d14ff7)"><path fill="#19055b" d="M 836.21875 335.0625 C 830.089844 335.0625 825.105469 330.089844 825.105469 323.980469 C 825.105469 317.867188 830.089844 312.898438 836.21875 312.898438 C 842.34375 312.898438 847.328125 317.867188 847.328125 323.980469 C 847.328125 330.089844 842.34375 335.0625 836.21875 335.0625 Z M 836.21875 314.101562 C 830.757812 314.101562 826.316406 318.535156 826.316406 323.980469 C 826.316406 329.425781 830.757812 333.855469 836.21875 333.855469 C 841.675781 333.855469 846.121094 329.425781 846.121094 323.980469 C 846.121094 318.535156 841.675781 314.101562 836.21875 314.101562 Z M 836.21875 314.101562 " fill-opacity="1" fill-rule="nonzero"/></g><path fill="#145da0" d="M 842.3125 323.980469 C 842.3125 324.378906 842.273438 324.773438 842.195312 325.164062 C 842.117188 325.554688 842 325.9375 841.847656 326.304688 C 841.695312 326.675781 841.507812 327.023438 841.285156 327.355469 C 841.0625 327.6875 840.808594 327.996094 840.527344 328.277344 C 840.242188 328.558594 839.9375 328.8125 839.601562 329.03125 C 839.269531 329.253906 838.917969 329.441406 838.550781 329.59375 C 838.179688 329.746094 837.800781 329.863281 837.40625 329.941406 C 837.015625 330.019531 836.617188 330.058594 836.21875 330.058594 C 835.816406 330.058594 835.421875 330.019531 835.027344 329.941406 C 834.636719 329.863281 834.253906 329.746094 833.886719 329.59375 C 833.515625 329.441406 833.164062 329.253906 832.832031 329.03125 C 832.5 328.8125 832.191406 328.558594 831.90625 328.277344 C 831.625 327.996094 831.371094 327.6875 831.148438 327.355469 C 830.929688 327.023438 830.738281 326.675781 830.585938 326.304688 C 830.433594 325.9375 830.316406 325.554688 830.238281 325.164062 C 830.164062 324.773438 830.125 324.378906 830.125 323.980469 C 830.125 323.582031 830.164062 323.183594 830.238281 322.792969 C 830.316406 322.402344 830.433594 322.023438 830.585938 321.652344 C 830.738281 321.285156 830.929688 320.933594 831.148438 320.601562 C 831.371094 320.269531 831.625 319.964844 831.90625 319.679688 C 832.191406 319.398438 832.5 319.148438 832.832031 318.925781 C 833.164062 318.703125 833.515625 318.515625 833.886719 318.363281 C 834.253906 318.210938 834.636719 318.097656 835.027344 318.019531 C 835.421875 317.941406 835.816406 317.902344 836.21875 317.902344 C 836.617188 317.902344 837.015625 317.941406 837.40625 318.019531 C 837.800781 318.097656 838.179688 318.210938 838.550781 318.363281 C 838.917969 318.515625 839.269531 318.703125 839.601562 318.925781 C 839.9375 319.148438 840.242188 319.398438 840.527344 319.679688 C 840.808594 319.964844 841.0625 320.269531 841.285156 320.601562 C 841.507812 320.933594 841.695312 321.285156 841.847656 321.652344 C 842 322.023438 842.117188 322.402344 842.195312 322.792969 C 842.273438 323.183594 842.3125 323.582031 842.3125 323.980469 Z M 842.3125 323.980469 " fill-opacity="1" fill-rule="nonzero"/><path fill="#19055b" d="M 836.21875 330.660156 C 832.523438 330.660156 829.519531 327.664062 829.519531 323.980469 C 829.519531 320.296875 832.523438 317.296875 836.21875 317.296875 C 839.910156 317.296875 842.917969 320.296875 842.917969 323.980469 C 842.917969 327.664062 839.910156 330.660156 836.21875 330.660156 Z M 836.21875 318.503906 C 833.191406 318.503906 830.726562 320.960938 830.726562 323.980469 C 830.726562 326.996094 833.191406 329.453125 836.21875 329.453125 C 839.246094 329.453125 841.707031 326.996094 841.707031 323.980469 C 841.707031 320.960938 839.246094 318.503906 836.21875 318.503906 Z M 836.21875 318.503906 " fill-opacity="1" fill-rule="nonzero"/><path fill="#7bc9c0" d="M 838.921875 321.714844 L 835.167969 316.757812 L 835.167969 310.933594 L 826.351562 310.933594 L 826.351562 316.773438 L 833.402344 326.101562 C 834.097656 327.015625 835.152344 327.5 836.21875 327.5 C 837.003906 327.5 837.796875 327.238281 838.457031 326.699219 C 839.945312 325.480469 840.085938 323.246094 838.921875 321.714844 Z M 838.921875 321.714844 " fill-opacity="1" fill-rule="nonzero"/><path fill="#19055b" d="M 836.21875 328.101562 C 834.910156 328.101562 833.710938 327.503906 832.921875 326.464844 L 825.867188 317.136719 C 825.789062 317.03125 825.746094 316.90625 825.746094 316.773438 L 825.746094 310.933594 C 825.746094 310.597656 826.015625 310.328125 826.351562 310.328125 L 835.167969 310.328125 C 835.5 310.328125 835.773438 310.597656 835.773438 310.933594 L 835.773438 316.558594 L 839.40625 321.351562 C 840.789062 323.171875 840.535156 325.78125 838.839844 327.164062 C 838.101562 327.769531 837.171875 328.101562 836.21875 328.101562 Z M 826.957031 316.574219 L 833.886719 325.738281 C 834.441406 326.472656 835.292969 326.894531 836.21875 326.894531 C 836.902344 326.894531 837.542969 326.667969 838.074219 326.234375 C 839.269531 325.253906 839.4375 323.390625 838.441406 322.078125 L 834.683594 317.125 C 834.605469 317.019531 834.5625 316.890625 834.5625 316.757812 L 834.5625 311.535156 L 826.957031 311.535156 Z M 826.957031 316.574219 " fill-opacity="1" fill-rule="nonzero"/><path fill="#7bc9c0" d="M 823.925781 308.609375 L 838.039062 308.609375 L 838.039062 312.871094 L 823.925781 312.871094 Z M 823.925781 308.609375 " fill-opacity="1" fill-rule="nonzero"/><path fill="#19055b" d="M 838.039062 313.472656 L 823.925781 313.472656 C 823.589844 313.472656 823.320312 313.203125 823.320312 312.871094 L 823.320312 308.609375 C 823.320312 308.277344 823.589844 308.007812 823.925781 308.007812 L 838.039062 308.007812 C 838.371094 308.007812 838.644531 308.277344 838.644531 308.609375 L 838.644531 312.871094 C 838.644531 313.203125 838.371094 313.472656 838.039062 313.472656 Z M 824.527344 312.269531 L 837.433594 312.269531 L 837.433594 309.210938 L 824.527344 309.210938 Z M 824.527344 312.269531 " fill-opacity="1" fill-rule="nonzero"/><path fill="#145da0" d="M 825.746094 304.347656 L 836.21875 304.347656 L 836.21875 308.609375 L 825.746094 308.609375 Z M 825.746094 304.347656 " fill-opacity="1" fill-rule="nonzero"/><path fill="#19055b" d="M 836.21875 309.210938 L 825.746094 309.210938 C 825.410156 309.210938 825.140625 308.941406 825.140625 308.609375 L 825.140625 304.347656 C 825.140625 304.015625 825.410156 303.746094 825.746094 303.746094 L 836.21875 303.746094 C 836.550781 303.746094 836.824219 304.015625 836.824219 304.347656 L 836.824219 308.609375 C 836.824219 308.941406 836.550781 309.210938 836.21875 309.210938 Z M 826.351562 308.007812 L 835.613281 308.007812 L 835.613281 304.953125 L 826.351562 304.953125 Z M 826.351562 308.007812 " fill-opacity="1" fill-rule="nonzero"/><path fill="#f6bd3b" d="M 690.1875 263.929688 L 770.046875 263.929688 L 770.046875 303.347656 L 690.1875 303.347656 Z M 690.1875 263.929688 " fill-opacity="1" fill-rule="nonzero"/><path fill="#19055b" d="M 770.046875 303.949219 L 690.1875 303.949219 C 689.851562 303.949219 689.582031 303.679688 689.582031 303.347656 L 689.582031 263.929688 C 689.582031 263.597656 689.851562 263.328125 690.1875 263.328125 L 770.046875 263.328125 C 770.382812 263.328125 770.652344 263.597656 770.652344 263.929688 L 770.652344 303.347656 C 770.652344 303.679688 770.382812 303.949219 770.046875 303.949219 Z M 690.792969 302.746094 L 769.445312 302.746094 L 769.445312 264.535156 L 690.792969 264.535156 Z M 690.792969 302.746094 " fill-opacity="1" fill-rule="nonzero"/><path fill="#f6bd3b" d="M 690.1875 263.929688 L 770.046875 263.929688 L 770.046875 277.59375 L 690.1875 277.59375 Z M 690.1875 263.929688 " fill-opacity="1" fill-rule="nonzero"/><path fill="#19055b" d="M 770.046875 278.195312 L 690.1875 278.195312 C 689.851562 278.195312 689.582031 277.925781 689.582031 277.59375 L 689.582031 263.929688 C 689.582031 263.597656 689.851562 263.328125 690.1875 263.328125 L 770.046875 263.328125 C 770.382812 263.328125 770.652344 263.597656 770.652344 263.929688 L 770.652344 277.59375 C 770.652344 277.925781 770.382812 278.195312 770.046875 278.195312 Z M 690.792969 276.988281 L 769.445312 276.988281 L 769.445312 264.535156 L 690.792969 264.535156 Z M 690.792969 276.988281 " fill-opacity="1" fill-rule="nonzero"/><path fill="#19055b" d="M 690.1875 277.59375 L 770.046875 277.59375 L 770.046875 279.574219 L 690.1875 279.574219 Z M 690.1875 277.59375 " fill-opacity="1" fill-rule="nonzero"/><path fill="#19055b" d="M 690.1875 300.367188 L 770.046875 300.367188 L 770.046875 302.347656 L 690.1875 302.347656 Z M 690.1875 300.367188 " fill-opacity="1" fill-rule="nonzero"/><path fill="#7bc9c0" d="M 722.941406 263.929688 L 736.972656 263.929688 L 736.972656 303.347656 L 722.941406 303.347656 Z M 722.941406 263.929688 " fill-opacity="1" fill-rule="nonzero"/><path fill="#19055b" d="M 736.972656 303.949219 L 722.941406 303.949219 C 722.605469 303.949219 722.335938 303.679688 722.335938 303.347656 L 722.335938 263.929688 C 722.335938 263.597656 722.605469 263.328125 722.941406 263.328125 L 736.972656 263.328125 C 737.304688 263.328125 737.578125 263.597656 737.578125 263.929688 L 737.578125 303.347656 C 737.578125 303.679688 737.304688 303.949219 736.972656 303.949219 Z M 723.542969 302.746094 L 736.367188 302.746094 L 736.367188 264.535156 L 723.542969 264.535156 Z M 723.542969 302.746094 " fill-opacity="1" fill-rule="nonzero"/><path fill="#f28a8d" d="M 774.738281 304.953125 C 774.15625 304.953125 773.621094 304.636719 773.335938 304.132812 C 772.902344 303.363281 773.175781 302.382812 773.949219 301.949219 L 788.238281 293.949219 C 788.480469 293.816406 788.75 293.746094 789.027344 293.746094 L 856.691406 293.746094 C 857.578125 293.746094 858.300781 294.464844 858.300781 295.347656 C 858.300781 296.234375 857.578125 296.953125 856.691406 296.953125 L 789.445312 296.953125 L 775.523438 304.746094 C 775.285156 304.878906 775.011719 304.953125 774.738281 304.953125 Z M 774.738281 304.953125 " fill-opacity="1" fill-rule="nonzero"/><path fill="#19055b" d="M 856.691406 294.347656 C 857.246094 294.347656 857.695312 294.796875 857.695312 295.347656 C 857.695312 295.902344 857.246094 296.347656 856.691406 296.347656 L 789.289062 296.347656 L 775.226562 304.21875 C 775.074219 304.308594 774.902344 304.347656 774.738281 304.347656 C 774.386719 304.347656 774.046875 304.164062 773.863281 303.835938 C 773.589844 303.355469 773.761719 302.746094 774.246094 302.476562 L 788.535156 294.476562 C 788.6875 294.390625 788.855469 294.347656 789.027344 294.347656 L 856.691406 294.347656 M 856.691406 293.140625 L 789.027344 293.140625 C 788.648438 293.140625 788.273438 293.238281 787.945312 293.425781 L 773.652344 301.421875 C 773.140625 301.710938 772.765625 302.183594 772.605469 302.75 C 772.445312 303.316406 772.519531 303.914062 772.808594 304.429688 C 773.199219 305.121094 773.9375 305.554688 774.738281 305.554688 C 775.117188 305.554688 775.488281 305.457031 775.820312 305.273438 L 789.605469 297.554688 L 856.691406 297.554688 C 857.914062 297.554688 858.90625 296.566406 858.90625 295.347656 C 858.90625 294.132812 857.914062 293.140625 856.691406 293.140625 Z M 856.691406 293.140625 " fill-opacity="1" fill-rule="nonzero"/><path fill="#7bc9c0" d="M 696.035156 151.707031 L 686.945312 232.109375 L 758.6875 238.46875 L 762.234375 155.726562 L 751.007812 154.871094 L 751.199219 152.773438 Z M 696.035156 151.707031 " fill-opacity="1" fill-rule="nonzero"/><path fill="#19055b" d="M 758.6875 239.070312 C 758.671875 239.070312 758.652344 239.070312 758.636719 239.066406 L 686.890625 232.710938 C 686.726562 232.695312 686.578125 232.617188 686.476562 232.492188 C 686.371094 232.363281 686.324219 232.203125 686.34375 232.042969 L 695.433594 151.640625 C 695.46875 151.332031 695.726562 151.101562 696.035156 151.101562 C 696.039062 151.101562 696.042969 151.101562 696.046875 151.105469 L 751.210938 152.171875 C 751.378906 152.175781 751.539062 152.246094 751.648438 152.371094 C 751.761719 152.496094 751.816406 152.664062 751.800781 152.828125 L 751.664062 154.3125 L 762.277344 155.125 C 762.605469 155.148438 762.851562 155.425781 762.835938 155.75 L 759.292969 238.492188 C 759.285156 238.65625 759.210938 238.8125 759.085938 238.921875 C 758.976562 239.019531 758.835938 239.070312 758.6875 239.070312 Z M 687.613281 231.5625 L 758.113281 237.8125 L 761.601562 156.28125 L 750.960938 155.46875 C 750.796875 155.457031 750.648438 155.382812 750.542969 155.257812 C 750.441406 155.136719 750.390625 154.976562 750.402344 154.8125 L 750.539062 153.363281 L 696.574219 152.320312 Z M 687.613281 231.5625 " fill-opacity="1" fill-rule="nonzero"/><path fill="#19055b" d="M 743.433594 237.691406 C 743.414062 237.691406 743.394531 237.691406 743.375 237.6875 C 743.042969 237.65625 742.800781 237.363281 742.828125 237.03125 L 750.597656 152.71875 C 750.628906 152.386719 750.925781 152.140625 751.253906 152.171875 C 751.585938 152.203125 751.832031 152.496094 751.800781 152.828125 L 744.035156 237.140625 C 744.003906 237.457031 743.742188 237.691406 743.433594 237.691406 Z M 743.433594 237.691406 " fill-opacity="1" fill-rule="nonzero"/><path fill="#145da0" d="M 709.605469 157.601562 C 709.605469 157.828125 709.5625 158.046875 709.476562 158.253906 C 709.386719 158.464844 709.265625 158.648438 709.105469 158.808594 C 708.941406 158.96875 708.757812 159.09375 708.546875 159.179688 C 708.339844 159.265625 708.121094 159.308594 707.894531 159.308594 C 707.664062 159.308594 707.449219 159.265625 707.238281 159.179688 C 707.027344 159.09375 706.84375 158.96875 706.683594 158.808594 C 706.523438 158.648438 706.398438 158.464844 706.3125 158.253906 C 706.222656 158.046875 706.179688 157.828125 706.179688 157.601562 C 706.179688 157.375 706.222656 157.15625 706.3125 156.945312 C 706.398438 156.738281 706.523438 156.554688 706.683594 156.394531 C 706.84375 156.234375 707.027344 156.109375 707.238281 156.023438 C 707.449219 155.9375 707.664062 155.894531 707.894531 155.894531 C 708.121094 155.894531 708.339844 155.9375 708.546875 156.023438 C 708.757812 156.109375 708.941406 156.234375 709.105469 156.394531 C 709.265625 156.554688 709.386719 156.738281 709.476562 156.945312 C 709.5625 157.15625 709.605469 157.375 709.605469 157.601562 Z M 709.605469 157.601562 " fill-opacity="1" fill-rule="nonzero"/><path fill="#19055b" d="M 707.894531 159.910156 C 707.847656 159.910156 707.800781 159.910156 707.753906 159.90625 C 706.476562 159.832031 705.503906 158.730469 705.582031 157.460938 C 705.65625 156.1875 706.753906 155.214844 708.035156 155.292969 C 709.308594 155.371094 710.285156 156.46875 710.207031 157.742188 C 710.132812 158.964844 709.109375 159.910156 707.894531 159.910156 Z M 707.890625 156.496094 C 707.3125 156.496094 706.824219 156.949219 706.789062 157.535156 C 706.75 158.140625 707.214844 158.667969 707.824219 158.703125 C 708.433594 158.734375 708.960938 158.277344 709 157.667969 C 709.035156 157.058594 708.570312 156.535156 707.960938 156.5 C 707.9375 156.496094 707.914062 156.496094 707.890625 156.496094 Z M 709.601562 157.703125 L 709.605469 157.703125 Z M 709.601562 157.703125 " fill-opacity="1" fill-rule="nonzero"/><path fill="#145da0" d="M 734.785156 157.753906 C 734.785156 157.980469 734.742188 158.199219 734.652344 158.40625 C 734.566406 158.617188 734.441406 158.800781 734.28125 158.960938 C 734.121094 159.121094 733.9375 159.246094 733.726562 159.332031 C 733.515625 159.417969 733.296875 159.460938 733.070312 159.460938 C 732.84375 159.460938 732.625 159.417969 732.417969 159.332031 C 732.207031 159.246094 732.019531 159.121094 731.859375 158.960938 C 731.699219 158.800781 731.578125 158.617188 731.488281 158.40625 C 731.402344 158.199219 731.359375 157.980469 731.359375 157.753906 C 731.359375 157.527344 731.402344 157.308594 731.488281 157.101562 C 731.578125 156.890625 731.699219 156.707031 731.859375 156.546875 C 732.019531 156.386719 732.207031 156.261719 732.417969 156.175781 C 732.625 156.089844 732.84375 156.046875 733.070312 156.046875 C 733.296875 156.046875 733.515625 156.089844 733.726562 156.175781 C 733.9375 156.261719 734.121094 156.386719 734.28125 156.546875 C 734.441406 156.707031 734.566406 156.890625 734.652344 157.101562 C 734.742188 157.308594 734.785156 157.527344 734.785156 157.753906 Z M 734.785156 157.753906 " fill-opacity="1" fill-rule="nonzero"/><path fill="#19055b" d="M 733.074219 160.066406 C 733.027344 160.066406 732.976562 160.0625 732.929688 160.0625 C 731.65625 159.984375 730.679688 158.886719 730.757812 157.613281 C 730.835938 156.34375 731.933594 155.367188 733.210938 155.449219 C 733.828125 155.484375 734.394531 155.761719 734.804688 156.222656 C 735.214844 156.683594 735.421875 157.277344 735.382812 157.894531 C 735.308594 159.121094 734.285156 160.066406 733.074219 160.066406 Z M 733.070312 156.648438 C 732.800781 156.648438 732.542969 156.746094 732.335938 156.925781 C 732.117188 157.125 731.984375 157.394531 731.964844 157.6875 C 731.929688 158.296875 732.394531 158.820312 733.003906 158.855469 C 733.300781 158.875 733.585938 158.777344 733.804688 158.582031 C 734.027344 158.386719 734.160156 158.117188 734.175781 157.820312 C 734.195312 157.527344 734.097656 157.242188 733.902344 157.023438 C 733.703125 156.800781 733.433594 156.667969 733.140625 156.652344 C 733.117188 156.652344 733.09375 156.648438 733.070312 156.648438 Z M 733.070312 156.648438 " fill-opacity="1" fill-rule="nonzero"/><path fill="#145da0" d="M 717.269531 178.222656 C 717.027344 178.222656 716.78125 178.214844 716.539062 178.191406 C 708.121094 177.484375 706.808594 159.699219 706.6875 157.671875 C 706.648438 157.011719 707.15625 156.4375 707.820312 156.398438 C 707.839844 156.398438 707.871094 156.398438 707.902344 156.398438 C 708.535156 156.398438 709.058594 156.894531 709.097656 157.527344 C 709.394531 162.453125 711.347656 175.339844 716.742188 175.792969 C 716.917969 175.808594 717.097656 175.816406 717.277344 175.816406 C 722.679688 175.816406 728.152344 168.984375 731.914062 157.542969 C 732.078125 157.046875 732.539062 156.714844 733.0625 156.714844 C 733.1875 156.714844 733.316406 156.734375 733.4375 156.773438 C 733.742188 156.875 733.992188 157.089844 734.136719 157.375 C 734.285156 157.664062 734.308594 157.988281 734.207031 158.292969 C 730.042969 170.960938 723.871094 178.222656 717.269531 178.222656 Z M 717.269531 178.222656 " fill-opacity="1" fill-rule="nonzero"/><path fill="#19055b" d="M 707.902344 157 C 708.210938 157 708.476562 157.25 708.492188 157.566406 C 708.503906 157.746094 709.671875 175.804688 716.691406 176.394531 C 716.886719 176.410156 717.082031 176.417969 717.277344 176.417969 C 722.964844 176.417969 728.617188 169.511719 732.488281 157.730469 C 732.574219 157.480469 732.808594 157.320312 733.0625 157.320312 C 733.125 157.320312 733.1875 157.328125 733.25 157.347656 C 733.566406 157.453125 733.738281 157.789062 733.632812 158.105469 C 729.589844 170.40625 723.515625 177.621094 717.269531 177.621094 C 717.042969 177.621094 716.816406 177.609375 716.589844 177.589844 C 708.539062 176.914062 707.339844 158.421875 707.292969 157.636719 C 707.273438 157.304688 707.523438 157.023438 707.855469 157 C 707.871094 157 707.886719 157 707.902344 157 M 707.902344 155.792969 C 707.855469 155.792969 707.8125 155.796875 707.765625 155.796875 C 706.789062 155.855469 706.023438 156.714844 706.085938 157.707031 C 706.210938 159.789062 707.5625 178.042969 716.488281 178.792969 C 716.746094 178.816406 717.011719 178.828125 717.269531 178.828125 C 724.148438 178.828125 730.53125 171.410156 734.78125 158.480469 C 734.933594 158.023438 734.894531 157.535156 734.675781 157.101562 C 734.460938 156.671875 734.085938 156.351562 733.625 156.203125 C 733.445312 156.140625 733.253906 156.113281 733.0625 156.113281 C 732.277344 156.113281 731.585938 156.613281 731.339844 157.355469 C 727.664062 168.539062 722.40625 175.214844 717.277344 175.214844 C 717.113281 175.214844 716.953125 175.207031 716.792969 175.191406 C 711.871094 174.777344 709.976562 161.953125 709.699219 157.492188 C 709.644531 156.539062 708.851562 155.792969 707.902344 155.792969 Z M 707.902344 155.792969 " fill-opacity="1" fill-rule="nonzero"/><path fill="#19055b" d="M 805.878906 178.882812 C 805.21875 178.882812 804.675781 178.347656 804.675781 177.6875 C 804.617188 168.042969 802.273438 161.492188 798.703125 160.992188 C 798.378906 160.949219 798.0625 160.925781 797.769531 160.925781 C 796.523438 160.925781 795.507812 161.324219 794.65625 162.144531 C 790.863281 165.804688 791.90625 176.074219 791.917969 176.175781 C 791.988281 176.835938 791.507812 177.433594 790.847656 177.503906 C 790.804688 177.507812 790.761719 177.507812 790.71875 177.507812 C 790.101562 177.507812 789.585938 177.046875 789.519531 176.433594 C 789.46875 175.964844 788.335938 164.898438 792.976562 160.414062 C 794.28125 159.15625 795.894531 158.519531 797.777344 158.519531 C 798.183594 158.519531 798.609375 158.550781 799.039062 158.609375 C 804.007812 159.300781 807.019531 166.429688 807.085938 177.671875 C 807.089844 178.335938 806.554688 178.878906 805.886719 178.882812 C 805.886719 178.882812 805.886719 178.882812 805.882812 178.882812 Z M 805.878906 178.882812 " fill-opacity="1" fill-rule="nonzero"/><path fill="#19055b" d="M 797.777344 159.121094 C 798.15625 159.121094 798.550781 159.152344 798.953125 159.207031 C 803.601562 159.855469 806.414062 166.757812 806.484375 177.675781 C 806.484375 178.007812 806.214844 178.277344 805.882812 178.28125 C 805.882812 178.28125 805.882812 178.28125 805.878906 178.28125 C 805.550781 178.28125 805.28125 178.015625 805.277344 177.683594 C 805.21875 167.570312 802.730469 160.945312 798.789062 160.394531 C 798.433594 160.347656 798.09375 160.320312 797.769531 160.320312 C 796.363281 160.320312 795.199219 160.78125 794.238281 161.710938 C 790.226562 165.582031 791.304688 176.136719 791.316406 176.242188 C 791.351562 176.570312 791.113281 176.867188 790.78125 176.902344 C 790.761719 176.90625 790.738281 176.90625 790.71875 176.90625 C 790.414062 176.90625 790.152344 176.675781 790.121094 176.371094 C 790.070312 175.914062 788.96875 165.128906 793.398438 160.847656 C 794.585938 159.703125 796.058594 159.121094 797.777344 159.121094 M 797.777344 157.917969 C 795.734375 157.917969 793.976562 158.613281 792.558594 159.980469 C 787.789062 164.589844 788.789062 175.292969 788.917969 176.5 C 789.015625 177.417969 789.789062 178.113281 790.71875 178.113281 C 790.78125 178.113281 790.847656 178.109375 790.914062 178.101562 C 791.902344 177.996094 792.625 177.105469 792.519531 176.113281 C 792.226562 173.320312 792.117188 165.4375 795.078125 162.578125 C 795.820312 161.863281 796.675781 161.527344 797.769531 161.527344 C 798.035156 161.527344 798.324219 161.550781 798.621094 161.589844 C 801.285156 161.960938 804.003906 167.085938 804.070312 177.691406 C 804.074219 178.679688 804.886719 179.488281 805.878906 179.488281 C 806.375 179.484375 806.828125 179.292969 807.167969 178.949219 C 807.507812 178.605469 807.695312 178.152344 807.691406 177.667969 C 807.621094 165.925781 804.496094 158.761719 799.121094 158.011719 C 798.664062 157.949219 798.210938 157.917969 797.777344 157.917969 Z M 797.777344 157.917969 " fill-opacity="1" fill-rule="nonzero"/><path fill="#7bc9c0" d="M 796.910156 176.988281 C 796.25 176.941406 795.746094 176.367188 795.792969 175.703125 C 796.421875 166.511719 795.023438 162.890625 793.738281 161.472656 C 793.054688 160.722656 792.242188 160.355469 791.179688 160.324219 C 791.113281 160.320312 791.046875 160.320312 790.980469 160.320312 C 789.636719 160.320312 788.492188 160.78125 787.488281 161.738281 C 783.695312 165.335938 783.488281 174.300781 783.484375 174.390625 C 783.476562 175.050781 782.941406 175.570312 782.273438 175.574219 C 781.59375 175.5625 781.0625 175.011719 781.074219 174.351562 C 781.078125 173.941406 781.292969 164.296875 785.824219 159.996094 C 787.277344 158.613281 789.015625 157.914062 790.992188 157.914062 C 791.078125 157.914062 791.167969 157.914062 791.253906 157.917969 C 792.972656 157.972656 794.40625 158.625 795.527344 159.859375 C 797.886719 162.460938 798.757812 167.699219 798.199219 175.871094 C 798.15625 176.5 797.628906 176.992188 796.996094 176.992188 C 796.96875 176.992188 796.941406 176.988281 796.910156 176.988281 Z M 796.910156 176.988281 " fill-opacity="1" fill-rule="nonzero"/><path fill="#19055b" d="M 790.992188 158.515625 C 791.074219 158.515625 791.15625 158.515625 791.238281 158.519531 C 792.78125 158.570312 794.074219 159.15625 795.078125 160.265625 C 797.320312 162.738281 798.144531 167.828125 797.59375 175.828125 C 797.574219 176.144531 797.308594 176.386719 796.996094 176.386719 C 796.980469 176.386719 796.96875 176.386719 796.953125 176.386719 C 796.621094 176.363281 796.371094 176.078125 796.394531 175.746094 C 796.914062 168.195312 796.167969 163.257812 794.183594 161.070312 C 793.398438 160.199219 792.421875 159.757812 791.199219 159.71875 C 791.125 159.71875 791.054688 159.714844 790.980469 159.714844 C 789.472656 159.714844 788.191406 160.234375 787.070312 161.300781 C 783.085938 165.085938 782.882812 174.289062 782.882812 174.378906 C 782.875 174.710938 782.605469 174.96875 782.269531 174.96875 C 781.9375 174.964844 781.671875 174.691406 781.675781 174.359375 C 781.683594 173.960938 781.886719 164.566406 786.238281 160.433594 C 787.582031 159.160156 789.175781 158.515625 790.992188 158.515625 M 790.992188 157.308594 C 788.855469 157.308594 786.976562 158.066406 785.40625 159.558594 C 780.773438 163.957031 780.484375 173.289062 780.46875 174.339844 C 780.453125 175.335938 781.25 176.160156 782.25 176.175781 C 782.253906 176.175781 782.261719 176.175781 782.269531 176.175781 C 782.273438 176.175781 782.273438 176.175781 782.277344 176.175781 C 783.277344 176.167969 784.074219 175.390625 784.089844 174.398438 C 784.136719 171.960938 784.917969 165.011719 787.90625 162.175781 C 788.804688 161.320312 789.78125 160.921875 790.980469 160.921875 C 791.039062 160.921875 791.097656 160.921875 791.160156 160.925781 C 792.046875 160.953125 792.722656 161.257812 793.289062 161.878906 C 794.496094 163.210938 795.804688 166.683594 795.1875 175.664062 C 795.121094 176.65625 795.875 177.523438 796.871094 177.589844 C 796.914062 177.59375 796.953125 177.59375 796.996094 177.59375 C 797.945312 177.59375 798.738281 176.855469 798.800781 175.910156 C 799.382812 167.453125 798.484375 162.222656 795.976562 159.457031 C 794.742188 158.09375 793.160156 157.375 791.277344 157.3125 C 791.179688 157.3125 791.085938 157.308594 790.992188 157.308594 Z M 790.992188 157.308594 " fill-opacity="1" fill-rule="nonzero"/><path fill="#145da0" d="M 769.535156 170.621094 L 759.496094 238.46875 L 815.230469 243.519531 L 817.699219 174.988281 Z M 769.535156 170.621094 " fill-opacity="1" fill-rule="nonzero"/><path fill="#19055b" d="M 815.230469 244.125 C 815.210938 244.125 815.191406 244.125 815.175781 244.121094 L 759.441406 239.070312 C 759.277344 239.054688 759.125 238.972656 759.019531 238.84375 C 758.917969 238.710938 758.875 238.546875 758.898438 238.382812 L 768.9375 170.535156 C 768.984375 170.21875 769.277344 169.992188 769.589844 170.019531 L 817.753906 174.386719 C 818.074219 174.414062 818.316406 174.6875 818.304688 175.007812 L 815.832031 243.542969 C 815.828125 243.707031 815.753906 243.863281 815.628906 243.972656 C 815.519531 244.070312 815.375 244.125 815.230469 244.125 Z M 760.1875 237.925781 L 814.648438 242.863281 L 817.074219 175.535156 L 770.050781 171.273438 Z M 760.1875 237.925781 " fill-opacity="1" fill-rule="nonzero"/><path fill="#19055b" d="M 801.585938 242.886719 C 801.558594 242.886719 801.53125 242.886719 801.503906 242.882812 C 801.175781 242.835938 800.941406 242.535156 800.988281 242.203125 L 810.195312 174.28125 C 810.242188 173.949219 810.542969 173.71875 810.878906 173.765625 C 811.207031 173.808594 811.441406 174.113281 811.394531 174.441406 L 802.183594 242.367188 C 802.144531 242.667969 801.886719 242.886719 801.585938 242.886719 Z M 801.585938 242.886719 " fill-opacity="1" fill-rule="nonzero"/><path fill="#19055b" d="M 759.9375 235.488281 L 815.34375 240.320312 L 815.230469 243.519531 L 759.496094 238.46875 Z M 759.9375 235.488281 " fill-opacity="1" fill-rule="nonzero"/><path fill="#19055b" d="M 815.230469 244.125 C 815.210938 244.125 815.191406 244.125 815.175781 244.121094 L 759.441406 239.070312 C 759.277344 239.054688 759.125 238.972656 759.019531 238.84375 C 758.917969 238.710938 758.875 238.546875 758.898438 238.382812 L 759.339844 235.398438 C 759.386719 235.082031 759.671875 234.859375 759.992188 234.886719 L 815.398438 239.71875 C 815.71875 239.746094 815.960938 240.019531 815.949219 240.339844 L 815.832031 243.542969 C 815.828125 243.707031 815.753906 243.863281 815.628906 243.972656 C 815.519531 244.070312 815.375 244.125 815.230469 244.125 Z M 760.1875 237.925781 L 814.648438 242.863281 L 814.71875 240.871094 L 760.453125 236.136719 Z M 760.1875 237.925781 " fill-opacity="1" fill-rule="nonzero"/><path fill="#19055b" d="M 687.292969 229.011719 L 686.945312 232.109375 L 758.6875 238.46875 L 758.820312 235.386719 Z M 687.292969 229.011719 " fill-opacity="1" fill-rule="nonzero"/><path fill="#19055b" d="M 758.6875 239.070312 C 758.671875 239.070312 758.652344 239.070312 758.636719 239.066406 L 686.890625 232.710938 C 686.726562 232.695312 686.578125 232.617188 686.476562 232.492188 C 686.371094 232.363281 686.324219 232.203125 686.34375 232.042969 L 686.691406 228.945312 C 686.730469 228.617188 687.023438 228.382812 687.347656 228.410156 L 758.875 234.785156 C 759.195312 234.816406 759.4375 235.089844 759.425781 235.414062 L 759.292969 238.492188 C 759.285156 238.65625 759.210938 238.8125 759.085938 238.921875 C 758.976562 239.019531 758.835938 239.070312 758.6875 239.070312 Z M 687.613281 231.5625 L 758.113281 237.8125 L 758.191406 235.9375 L 687.828125 229.664062 Z M 687.613281 231.5625 " fill-opacity="1" fill-rule="nonzero"/><path fill="#f6bd3b" d="M 675.363281 188.960938 C 674.488281 188.960938 673.765625 188.253906 673.753906 187.382812 C 673.75 186.953125 673.910156 186.546875 674.210938 186.242188 C 674.507812 185.933594 674.910156 185.761719 675.339844 185.757812 C 675.339844 185.757812 836.542969 183.539062 836.542969 183.539062 C 837.445312 183.539062 838.160156 184.25 838.171875 185.121094 C 838.183594 186.007812 837.472656 186.734375 836.585938 186.746094 C 836.585938 186.746094 675.363281 188.960938 675.363281 188.960938 Z M 675.363281 188.960938 " fill-opacity="1" fill-rule="nonzero"/><path fill="#19055b" d="M 836.578125 184.144531 C 837.117188 184.144531 837.558594 184.585938 837.566406 185.128906 C 837.574219 185.683594 837.132812 186.136719 836.578125 186.144531 L 675.375 188.359375 C 675.371094 188.359375 675.367188 188.359375 675.363281 188.359375 C 674.8125 188.359375 674.367188 187.921875 674.359375 187.371094 C 674.351562 186.820312 674.792969 186.367188 675.347656 186.359375 L 836.550781 184.144531 C 836.558594 184.144531 836.570312 184.144531 836.578125 184.144531 M 836.578125 182.9375 L 836.519531 182.9375 L 675.332031 185.152344 C 674.742188 185.160156 674.1875 185.398438 673.777344 185.820312 C 673.363281 186.242188 673.140625 186.800781 673.148438 187.390625 C 673.164062 188.589844 674.15625 189.566406 675.363281 189.566406 C 675.371094 189.566406 675.382812 189.566406 675.390625 189.566406 L 836.597656 187.351562 C 837.816406 187.335938 838.792969 186.332031 838.777344 185.113281 C 838.761719 183.914062 837.773438 182.9375 836.578125 182.9375 Z M 836.578125 182.9375 " fill-opacity="1" fill-rule="nonzero"/><path fill="#f6bd3b" d="M 676.125 211.066406 C 675.695312 211.050781 675.300781 210.867188 675.011719 210.550781 C 674.71875 210.234375 674.570312 209.828125 674.585938 209.398438 C 674.625 208.535156 675.324219 207.863281 676.183594 207.863281 C 676.210938 207.863281 676.238281 207.863281 676.269531 207.863281 L 829.078125 214.28125 C 829.507812 214.300781 829.902344 214.484375 830.195312 214.800781 C 830.484375 215.113281 830.636719 215.523438 830.617188 215.953125 C 830.582031 216.8125 829.875 217.488281 829.011719 217.488281 C 828.984375 217.488281 676.125 211.066406 676.125 211.066406 Z M 676.125 211.066406 " fill-opacity="1" fill-rule="nonzero"/><path fill="#19055b" d="M 676.183594 208.464844 C 676.203125 208.464844 676.21875 208.464844 676.234375 208.464844 L 829.050781 214.886719 C 829.605469 214.910156 830.035156 215.375 830.011719 215.925781 C 829.988281 216.464844 829.546875 216.886719 829.011719 216.886719 C 828.996094 216.886719 828.984375 216.882812 828.96875 216.882812 L 676.152344 210.464844 C 675.597656 210.441406 675.167969 209.976562 675.191406 209.421875 C 675.214844 208.886719 675.660156 208.464844 676.183594 208.464844 M 676.183594 207.257812 C 675 207.257812 674.03125 208.1875 673.984375 209.375 C 673.933594 210.589844 674.882812 211.617188 676.101562 211.671875 L 828.917969 218.089844 C 828.9375 218.089844 828.972656 218.089844 829.011719 218.089844 C 830.199219 218.089844 831.171875 217.164062 831.222656 215.976562 C 831.246094 215.386719 831.039062 214.824219 830.640625 214.390625 C 830.238281 213.957031 829.695312 213.703125 829.101562 213.679688 L 676.285156 207.261719 C 676.261719 207.257812 676.222656 207.257812 676.183594 207.257812 Z M 676.183594 207.257812 " fill-opacity="1" fill-rule="nonzero"/><path fill="#f6bd3b" d="M 807.679688 243.507812 L 805.675781 243.328125 C 805.507812 243.3125 805.351562 243.230469 805.25 243.09375 C 805.144531 242.960938 805.105469 242.792969 805.132812 242.625 L 820.191406 155.476562 C 820.238281 155.203125 820.46875 154.996094 820.746094 154.976562 L 822.804688 154.835938 C 822.820312 154.835938 822.832031 154.835938 822.847656 154.835938 C 823.015625 154.835938 823.179688 154.90625 823.296875 155.035156 C 823.421875 155.171875 823.476562 155.359375 823.441406 155.539062 L 808.328125 243.007812 C 808.277344 243.300781 808.023438 243.511719 807.734375 243.511719 C 807.714844 243.511719 807.699219 243.507812 807.679688 243.507812 Z M 789.171875 241.851562 L 787.171875 241.675781 C 787.007812 241.660156 786.855469 241.578125 786.75 241.449219 C 786.648438 241.316406 786.601562 241.148438 786.628906 240.984375 L 798.972656 156.941406 C 799.011719 156.660156 799.246094 156.445312 799.527344 156.425781 L 801.578125 156.285156 C 801.589844 156.285156 801.605469 156.285156 801.617188 156.285156 C 801.785156 156.285156 801.945312 156.355469 802.0625 156.476562 C 802.1875 156.613281 802.242188 156.792969 802.214844 156.976562 L 789.824219 241.339844 C 789.78125 241.636719 789.523438 241.855469 789.226562 241.855469 C 789.210938 241.855469 789.191406 241.855469 789.171875 241.851562 Z M 770.660156 240.199219 L 768.660156 240.019531 C 768.496094 240.003906 768.347656 239.925781 768.246094 239.796875 C 768.140625 239.671875 768.09375 239.507812 768.113281 239.347656 L 777.765625 158.40625 C 777.800781 158.117188 778.035156 157.894531 778.324219 157.875 L 780.363281 157.734375 C 780.375 157.734375 780.390625 157.734375 780.402344 157.734375 C 780.566406 157.734375 780.726562 157.800781 780.839844 157.921875 C 780.964844 158.050781 781.023438 158.230469 781.003906 158.410156 L 771.3125 239.667969 C 771.277344 239.972656 771.015625 240.199219 770.714844 240.199219 C 770.695312 240.199219 770.679688 240.199219 770.660156 240.199219 Z M 752.136719 238.542969 L 750.140625 238.363281 C 749.808594 238.335938 749.5625 238.042969 749.589844 237.710938 L 756.574219 159.871094 C 756.601562 159.574219 756.839844 159.34375 757.136719 159.324219 L 759.160156 159.183594 C 759.175781 159.183594 759.191406 159.183594 759.203125 159.183594 C 759.367188 159.183594 759.519531 159.246094 759.636719 159.363281 C 759.757812 159.488281 759.820312 159.664062 759.804688 159.839844 L 752.792969 237.996094 C 752.78125 238.15625 752.703125 238.300781 752.578125 238.40625 C 752.46875 238.496094 752.332031 238.546875 752.191406 238.546875 C 752.175781 238.546875 752.15625 238.542969 752.136719 238.542969 Z M 733.609375 236.886719 L 731.609375 236.707031 C 731.285156 236.679688 731.039062 236.398438 731.058594 236.070312 L 735.398438 161.335938 C 735.417969 161.03125 735.65625 160.789062 735.960938 160.769531 L 737.980469 160.632812 C 737.992188 160.628906 738.007812 160.628906 738.019531 160.628906 C 738.179688 160.628906 738.332031 160.691406 738.445312 160.804688 C 738.570312 160.925781 738.632812 161.09375 738.625 161.269531 L 734.265625 236.320312 C 734.253906 236.484375 734.179688 236.636719 734.054688 236.742188 C 733.945312 236.835938 733.804688 236.886719 733.660156 236.886719 C 733.644531 236.886719 733.625 236.886719 733.609375 236.886719 Z M 715.066406 235.230469 L 713.066406 235.050781 C 712.746094 235.023438 712.507812 234.753906 712.515625 234.433594 L 714.242188 162.800781 C 714.25 162.492188 714.492188 162.234375 714.804688 162.214844 L 716.8125 162.078125 C 716.828125 162.078125 716.839844 162.074219 716.855469 162.074219 C 717.011719 162.074219 717.160156 162.136719 717.273438 162.242188 C 717.394531 162.359375 717.464844 162.523438 717.460938 162.695312 L 715.726562 234.640625 C 715.722656 234.808594 715.648438 234.96875 715.523438 235.078125 C 715.414062 235.175781 715.269531 235.230469 715.121094 235.230469 C 715.105469 235.230469 715.085938 235.230469 715.066406 235.230469 Z M 696.515625 233.570312 L 694.507812 233.390625 C 694.199219 233.363281 693.960938 233.105469 693.957031 232.796875 L 693.101562 164.269531 C 693.097656 163.949219 693.34375 163.679688 693.664062 163.660156 L 695.667969 163.523438 C 695.683594 163.519531 695.699219 163.519531 695.710938 163.519531 C 695.863281 163.519531 696.007812 163.578125 696.121094 163.679688 C 696.242188 163.792969 696.3125 163.949219 696.316406 164.117188 L 697.175781 232.960938 C 697.175781 233.132812 697.105469 233.296875 696.980469 233.414062 C 696.871094 233.515625 696.722656 233.574219 696.570312 233.574219 C 696.554688 233.574219 696.535156 233.570312 696.515625 233.570312 Z M 696.515625 233.570312 " fill-opacity="1" fill-rule="nonzero"/><path fill="#19055b" d="M 822.847656 155.4375 L 822.847656 155.4375 M 822.847656 155.4375 L 807.734375 242.90625 L 805.730469 242.726562 L 820.785156 155.578125 L 822.847656 155.4375 M 801.617188 156.886719 L 801.621094 156.886719 M 801.617188 156.886719 L 789.226562 241.253906 L 787.226562 241.074219 L 799.570312 157.027344 L 801.617188 156.886719 M 780.402344 158.335938 L 780.40625 158.335938 M 780.402344 158.335938 L 770.714844 239.597656 L 768.714844 239.417969 L 778.367188 158.476562 L 780.402344 158.335938 M 759.203125 159.785156 L 759.207031 159.785156 M 759.203125 159.785156 L 752.191406 237.941406 L 750.195312 237.761719 L 757.175781 159.925781 L 759.203125 159.785156 M 738.019531 161.234375 L 738.023438 161.234375 M 738.019531 161.234375 L 733.660156 236.285156 L 731.664062 236.105469 L 736.003906 161.371094 L 738.019531 161.234375 M 716.855469 162.679688 L 716.855469 162.679688 M 716.855469 162.679688 L 715.121094 234.628906 L 713.121094 234.449219 L 714.84375 162.816406 L 716.855469 162.679688 M 695.710938 164.125 L 696.570312 232.96875 L 694.5625 232.789062 L 693.707031 164.261719 L 695.710938 164.125 M 822.847656 154.230469 C 822.839844 154.230469 822.828125 154.230469 822.820312 154.230469 C 822.820312 154.230469 822.816406 154.230469 822.816406 154.230469 C 822.796875 154.230469 822.773438 154.234375 822.753906 154.234375 L 820.703125 154.375 C 820.148438 154.414062 819.691406 154.824219 819.59375 155.375 L 804.535156 242.523438 C 804.480469 242.855469 804.5625 243.195312 804.769531 243.464844 C 804.976562 243.730469 805.285156 243.898438 805.621094 243.929688 L 807.625 244.109375 C 807.660156 244.113281 807.699219 244.113281 807.734375 244.113281 C 808.316406 244.113281 808.824219 243.695312 808.925781 243.113281 L 824.03125 155.695312 C 824.046875 155.613281 824.058594 155.527344 824.058594 155.4375 C 824.058594 154.773438 823.519531 154.234375 822.851562 154.230469 C 822.851562 154.230469 822.847656 154.230469 822.847656 154.230469 Z M 822.847656 156.644531 Z M 801.617188 155.679688 C 801.609375 155.679688 801.597656 155.679688 801.585938 155.683594 C 801.566406 155.683594 801.546875 155.683594 801.523438 155.683594 L 799.488281 155.824219 C 798.917969 155.863281 798.457031 156.292969 798.375 156.851562 L 786.027344 240.898438 C 785.980469 241.226562 786.070312 241.558594 786.277344 241.820312 C 786.480469 242.082031 786.785156 242.246094 787.117188 242.273438 L 789.117188 242.453125 C 789.15625 242.457031 789.191406 242.460938 789.226562 242.460938 C 789.824219 242.460938 790.335938 242.023438 790.425781 241.425781 L 802.808594 157.117188 C 802.820312 157.042969 802.828125 156.964844 802.828125 156.886719 C 802.828125 156.222656 802.289062 155.683594 801.625 155.679688 C 801.621094 155.679688 801.621094 155.679688 801.617188 155.679688 Z M 801.617188 158.09375 L 801.621094 158.09375 Z M 780.402344 157.132812 C 780.394531 157.132812 780.382812 157.132812 780.371094 157.132812 C 780.351562 157.132812 780.332031 157.132812 780.308594 157.132812 L 778.285156 157.273438 C 777.703125 157.3125 777.234375 157.757812 777.164062 158.335938 L 767.511719 239.277344 C 767.476562 239.601562 767.570312 239.925781 767.773438 240.179688 C 767.980469 240.433594 768.28125 240.589844 768.605469 240.621094 L 770.605469 240.800781 C 770.640625 240.800781 770.679688 240.804688 770.714844 240.804688 C 771.320312 240.804688 771.839844 240.351562 771.914062 239.738281 L 781.597656 158.53125 C 781.609375 158.46875 781.613281 158.402344 781.613281 158.335938 C 781.613281 157.671875 781.078125 157.132812 780.410156 157.132812 C 780.410156 157.132812 780.40625 157.132812 780.402344 157.132812 Z M 780.402344 159.542969 L 780.40625 159.542969 Z M 759.203125 158.578125 C 759.191406 158.578125 759.183594 158.578125 759.171875 158.578125 C 759.152344 158.582031 759.128906 158.582031 759.109375 158.582031 L 757.09375 158.71875 C 756.5 158.761719 756.023438 159.226562 755.972656 159.816406 L 748.988281 237.65625 C 748.929688 238.320312 749.421875 238.90625 750.085938 238.964844 L 752.082031 239.144531 C 752.121094 239.148438 752.15625 239.148438 752.191406 239.148438 C 752.472656 239.148438 752.75 239.050781 752.96875 238.867188 C 753.214844 238.664062 753.367188 238.367188 753.398438 238.050781 L 760.402344 159.945312 C 760.410156 159.894531 760.414062 159.839844 760.414062 159.785156 C 760.414062 159.121094 759.875 158.582031 759.210938 158.578125 C 759.207031 158.578125 759.207031 158.578125 759.203125 158.578125 Z M 759.203125 160.992188 L 759.207031 160.992188 Z M 738.019531 160.027344 C 738.011719 160.027344 738.003906 160.027344 737.992188 160.027344 C 737.96875 160.027344 737.949219 160.027344 737.925781 160.03125 L 735.921875 160.167969 C 735.3125 160.207031 734.832031 160.695312 734.796875 161.300781 L 730.457031 236.035156 C 730.417969 236.6875 730.902344 237.25 731.554688 237.308594 L 733.554688 237.488281 C 733.589844 237.488281 733.625 237.492188 733.660156 237.492188 C 733.949219 237.492188 734.230469 237.386719 734.453125 237.199219 C 734.699219 236.984375 734.851562 236.679688 734.867188 236.355469 L 739.226562 161.355469 C 739.230469 161.3125 739.230469 161.273438 739.230469 161.234375 C 739.230469 160.566406 738.691406 160.027344 738.023438 160.027344 C 738.023438 160.027344 738.023438 160.027344 738.019531 160.027344 Z M 738.019531 162.441406 L 738.023438 162.441406 Z M 716.855469 161.472656 C 716.847656 161.472656 716.835938 161.472656 716.828125 161.472656 C 716.828125 161.472656 716.828125 161.472656 716.824219 161.472656 C 716.804688 161.472656 716.78125 161.476562 716.761719 161.476562 L 714.761719 161.613281 C 714.140625 161.65625 713.652344 162.164062 713.636719 162.789062 L 711.910156 234.421875 C 711.894531 235.054688 712.375 235.59375 713.011719 235.652344 L 715.011719 235.828125 C 715.050781 235.832031 715.085938 235.835938 715.121094 235.835938 C 715.417969 235.835938 715.703125 235.726562 715.925781 235.527344 C 716.175781 235.304688 716.324219 234.992188 716.332031 234.65625 L 718.0625 162.757812 C 718.066406 162.730469 718.066406 162.707031 718.066406 162.679688 C 718.066406 162.015625 717.527344 161.472656 716.859375 161.472656 C 716.859375 161.472656 716.855469 161.472656 716.855469 161.472656 Z M 716.855469 163.886719 Z M 695.710938 162.917969 C 695.683594 162.917969 695.65625 162.917969 695.628906 162.921875 L 693.625 163.058594 C 692.984375 163.101562 692.488281 163.636719 692.496094 164.277344 L 693.351562 232.804688 C 693.359375 233.425781 693.835938 233.9375 694.453125 233.992188 L 696.460938 234.171875 C 696.5 234.175781 696.535156 234.175781 696.570312 234.175781 C 696.875 234.175781 697.167969 234.0625 697.390625 233.855469 C 697.644531 233.625 697.785156 233.296875 697.78125 232.953125 L 696.921875 164.109375 C 696.917969 163.777344 696.777344 163.460938 696.53125 163.238281 C 696.308594 163.03125 696.015625 162.917969 695.710938 162.917969 Z M 695.710938 162.917969 " fill-opacity="1" fill-rule="nonzero"/><path fill="#f28a8d" d="M 706.902344 323.980469 C 706.902344 324.667969 706.835938 325.347656 706.699219 326.023438 C 706.566406 326.699219 706.367188 327.355469 706.101562 327.988281 C 705.839844 328.625 705.515625 329.230469 705.132812 329.800781 C 704.75 330.375 704.3125 330.902344 703.824219 331.390625 C 703.335938 331.875 702.804688 332.308594 702.234375 332.691406 C 701.660156 333.074219 701.054688 333.398438 700.417969 333.660156 C 699.777344 333.925781 699.121094 334.121094 698.445312 334.257812 C 697.769531 334.390625 697.085938 334.457031 696.394531 334.457031 C 695.707031 334.457031 695.023438 334.390625 694.34375 334.257812 C 693.667969 334.121094 693.011719 333.925781 692.375 333.660156 C 691.738281 333.398438 691.132812 333.074219 690.558594 332.691406 C 689.984375 332.308594 689.453125 331.875 688.964844 331.390625 C 688.476562 330.902344 688.042969 330.375 687.660156 329.800781 C 687.277344 329.230469 686.953125 328.625 686.6875 327.988281 C 686.425781 327.355469 686.226562 326.699219 686.089844 326.023438 C 685.957031 325.347656 685.886719 324.667969 685.886719 323.980469 C 685.886719 323.292969 685.957031 322.609375 686.089844 321.933594 C 686.226562 321.261719 686.425781 320.605469 686.6875 319.96875 C 686.953125 319.332031 687.277344 318.730469 687.660156 318.15625 C 688.042969 317.585938 688.476562 317.054688 688.964844 316.570312 C 689.453125 316.082031 689.984375 315.648438 690.558594 315.265625 C 691.132812 314.882812 691.738281 314.5625 692.375 314.296875 C 693.011719 314.035156 693.667969 313.835938 694.34375 313.703125 C 695.023438 313.566406 695.707031 313.5 696.394531 313.5 C 697.085938 313.5 697.769531 313.566406 698.445312 313.703125 C 699.121094 313.835938 699.777344 314.035156 700.417969 314.296875 C 701.054688 314.5625 701.660156 314.882812 702.234375 315.265625 C 702.804688 315.648438 703.335938 316.082031 703.824219 316.570312 C 704.3125 317.054688 704.75 317.585938 705.132812 318.15625 C 705.515625 318.730469 705.839844 319.332031 706.101562 319.96875 C 706.367188 320.605469 706.566406 321.261719 706.699219 321.933594 C 706.835938 322.609375 706.902344 323.292969 706.902344 323.980469 Z M 706.902344 323.980469 " fill-opacity="1" fill-rule="nonzero"/><g clip-path="url(#d997b1d6d1)"><path fill="#19055b" d="M 696.394531 335.0625 C 690.269531 335.0625 685.285156 330.089844 685.285156 323.980469 C 685.285156 317.867188 690.269531 312.898438 696.394531 312.898438 C 702.523438 312.898438 707.507812 317.867188 707.507812 323.980469 C 707.507812 330.089844 702.523438 335.0625 696.394531 335.0625 Z M 696.394531 314.101562 C 690.933594 314.101562 686.492188 318.535156 686.492188 323.980469 C 686.492188 329.425781 690.933594 333.855469 696.394531 333.855469 C 701.855469 333.855469 706.296875 329.425781 706.296875 323.980469 C 706.296875 318.535156 701.855469 314.101562 696.394531 314.101562 Z M 696.394531 314.101562 " fill-opacity="1" fill-rule="nonzero"/></g><path fill="#145da0" d="M 702.488281 323.980469 C 702.488281 324.378906 702.449219 324.773438 702.371094 325.164062 C 702.292969 325.554688 702.179688 325.9375 702.027344 326.304688 C 701.871094 326.675781 701.683594 327.023438 701.460938 327.355469 C 701.242188 327.6875 700.988281 327.996094 700.703125 328.277344 C 700.421875 328.558594 700.113281 328.8125 699.78125 329.03125 C 699.449219 329.253906 699.097656 329.441406 698.726562 329.59375 C 698.359375 329.746094 697.976562 329.863281 697.585938 329.941406 C 697.191406 330.019531 696.796875 330.058594 696.394531 330.058594 C 695.996094 330.058594 695.597656 330.019531 695.207031 329.941406 C 694.8125 329.863281 694.433594 329.746094 694.0625 329.59375 C 693.695312 329.441406 693.34375 329.253906 693.007812 329.03125 C 692.675781 328.8125 692.367188 328.558594 692.085938 328.277344 C 691.804688 327.996094 691.550781 327.6875 691.328125 327.355469 C 691.105469 327.023438 690.917969 326.675781 690.765625 326.304688 C 690.613281 325.9375 690.496094 325.554688 690.417969 325.164062 C 690.339844 324.773438 690.300781 324.378906 690.300781 323.980469 C 690.300781 323.582031 690.339844 323.183594 690.417969 322.792969 C 690.496094 322.402344 690.613281 322.023438 690.765625 321.652344 C 690.917969 321.285156 691.105469 320.933594 691.328125 320.601562 C 691.550781 320.269531 691.804688 319.964844 692.085938 319.679688 C 692.367188 319.398438 692.675781 319.148438 693.007812 318.925781 C 693.34375 318.703125 693.695312 318.515625 694.0625 318.363281 C 694.433594 318.210938 694.8125 318.097656 695.207031 318.019531 C 695.597656 317.941406 695.996094 317.902344 696.394531 317.902344 C 696.796875 317.902344 697.191406 317.941406 697.585938 318.019531 C 697.976562 318.097656 698.359375 318.210938 698.726562 318.363281 C 699.097656 318.515625 699.449219 318.703125 699.78125 318.925781 C 700.113281 319.148438 700.421875 319.398438 700.703125 319.679688 C 700.988281 319.964844 701.242188 320.269531 701.460938 320.601562 C 701.683594 320.933594 701.871094 321.285156 702.027344 321.652344 C 702.179688 322.023438 702.292969 322.402344 702.371094 322.792969 C 702.449219 323.183594 702.488281 323.582031 702.488281 323.980469 Z M 702.488281 323.980469 " fill-opacity="1" fill-rule="nonzero"/><path fill="#19055b" d="M 696.394531 330.660156 C 692.703125 330.660156 689.695312 327.664062 689.695312 323.980469 C 689.695312 320.296875 692.703125 317.296875 696.394531 317.296875 C 700.089844 317.296875 703.09375 320.296875 703.09375 323.980469 C 703.09375 327.664062 700.089844 330.660156 696.394531 330.660156 Z M 696.394531 318.503906 C 693.367188 318.503906 690.90625 320.960938 690.90625 323.980469 C 690.90625 326.996094 693.367188 329.453125 696.394531 329.453125 C 699.421875 329.453125 701.886719 326.996094 701.886719 323.980469 C 701.886719 320.960938 699.421875 318.503906 696.394531 318.503906 Z M 696.394531 318.503906 " fill-opacity="1" fill-rule="nonzero"/><path fill="#7bc9c0" d="M 699.101562 321.714844 L 695.34375 316.757812 L 695.34375 310.933594 L 686.527344 310.933594 L 686.527344 316.773438 L 693.582031 326.101562 C 694.273438 327.015625 695.332031 327.5 696.398438 327.5 C 697.183594 327.5 697.972656 327.238281 698.632812 326.699219 C 700.125 325.480469 700.261719 323.246094 699.101562 321.714844 Z M 699.101562 321.714844 " fill-opacity="1" fill-rule="nonzero"/><path fill="#19055b" d="M 696.398438 328.101562 C 695.089844 328.101562 693.886719 327.503906 693.097656 326.464844 L 686.046875 317.136719 C 685.964844 317.03125 685.921875 316.90625 685.921875 316.773438 L 685.921875 310.933594 C 685.921875 310.597656 686.195312 310.328125 686.527344 310.328125 L 695.34375 310.328125 C 695.679688 310.328125 695.949219 310.597656 695.949219 310.933594 L 695.949219 316.558594 L 699.585938 321.351562 C 700.964844 323.171875 700.710938 325.78125 699.015625 327.164062 C 698.277344 327.769531 697.347656 328.101562 696.398438 328.101562 Z M 687.132812 316.574219 L 694.0625 325.738281 C 694.621094 326.472656 695.472656 326.894531 696.398438 326.894531 C 697.078125 326.894531 697.71875 326.667969 698.25 326.234375 C 699.449219 325.253906 699.613281 323.390625 698.621094 322.078125 L 694.863281 317.125 C 694.78125 317.019531 694.738281 316.890625 694.738281 316.757812 L 694.738281 311.535156 L 687.132812 311.535156 Z M 687.132812 316.574219 " fill-opacity="1" fill-rule="nonzero"/><path fill="#7bc9c0" d="M 684.101562 308.609375 L 698.21875 308.609375 L 698.21875 312.871094 L 684.101562 312.871094 Z M 684.101562 308.609375 " fill-opacity="1" fill-rule="nonzero"/><path fill="#19055b" d="M 698.214844 313.472656 L 684.101562 313.472656 C 683.769531 313.472656 683.496094 313.203125 683.496094 312.871094 L 683.496094 308.609375 C 683.496094 308.277344 683.769531 308.007812 684.101562 308.007812 L 698.214844 308.007812 C 698.550781 308.007812 698.820312 308.277344 698.820312 308.609375 L 698.820312 312.871094 C 698.820312 313.203125 698.550781 313.472656 698.214844 313.472656 Z M 684.707031 312.269531 L 697.613281 312.269531 L 697.613281 309.210938 L 684.707031 309.210938 Z M 684.707031 312.269531 " fill-opacity="1" fill-rule="nonzero"/><path fill="#145da0" d="M 685.921875 304.347656 L 696.394531 304.347656 L 696.394531 308.609375 L 685.921875 308.609375 Z M 685.921875 304.347656 " fill-opacity="1" fill-rule="nonzero"/><path fill="#19055b" d="M 696.394531 309.210938 L 685.921875 309.210938 C 685.589844 309.210938 685.320312 308.941406 685.320312 308.609375 L 685.320312 304.347656 C 685.320312 304.015625 685.589844 303.746094 685.921875 303.746094 L 696.394531 303.746094 C 696.730469 303.746094 697 304.015625 697 304.347656 L 697 308.609375 C 697 308.941406 696.730469 309.210938 696.394531 309.210938 Z M 686.527344 308.007812 L 695.789062 308.007812 L 695.789062 304.953125 L 686.527344 304.953125 Z M 686.527344 308.007812 " fill-opacity="1" fill-rule="nonzero"/><path fill="#f6bd3b" d="M 679.8125 304.953125 C 678.925781 304.953125 678.203125 304.230469 678.203125 303.347656 C 678.203125 302.464844 678.925781 301.746094 679.8125 301.746094 L 856.691406 301.746094 C 857.578125 301.746094 858.300781 302.464844 858.300781 303.347656 C 858.300781 304.230469 857.578125 304.953125 856.691406 304.953125 Z M 679.8125 304.953125 " fill-opacity="1" fill-rule="nonzero"/><path fill="#19055b" d="M 856.691406 302.347656 C 857.246094 302.347656 857.695312 302.796875 857.695312 303.347656 C 857.695312 303.898438 857.246094 304.347656 856.691406 304.347656 L 679.8125 304.347656 C 679.257812 304.347656 678.808594 303.898438 678.808594 303.347656 C 678.808594 302.796875 679.257812 302.347656 679.8125 302.347656 L 856.691406 302.347656 M 856.691406 301.140625 L 679.8125 301.140625 C 678.589844 301.140625 677.597656 302.132812 677.597656 303.347656 C 677.597656 304.566406 678.589844 305.554688 679.8125 305.554688 L 856.691406 305.554688 C 857.914062 305.554688 858.90625 304.566406 858.90625 303.347656 C 858.90625 302.132812 857.914062 301.140625 856.691406 301.140625 Z M 856.691406 301.140625 " fill-opacity="1" fill-rule="nonzero"/><path fill="#f6bd3b" d="M 851.171875 304.949219 C 850.742188 304.933594 850.347656 304.753906 850.054688 304.441406 C 849.761719 304.128906 849.605469 303.71875 849.621094 303.292969 L 850.398438 280.859375 L 817.84375 245.460938 L 782.410156 242.617188 L 812.90625 278.238281 C 813.167969 278.546875 813.300781 278.933594 813.289062 279.332031 L 812.488281 303.402344 C 812.460938 304.253906 811.734375 304.953125 810.875 304.953125 C 810.871094 304.953125 810.835938 304.949219 810.832031 304.949219 C 810.398438 304.9375 810 304.757812 809.707031 304.445312 C 809.414062 304.128906 809.261719 303.722656 809.273438 303.292969 L 810.054688 279.847656 L 777.4375 241.746094 C 777.011719 241.253906 776.929688 240.558594 777.226562 239.976562 C 777.503906 239.4375 778.050781 239.101562 778.652344 239.101562 C 778.699219 239.101562 778.746094 239.105469 778.792969 239.109375 L 818.730469 242.316406 C 819.136719 242.347656 819.511719 242.53125 819.785156 242.832031 L 853.214844 279.175781 C 853.5 279.484375 853.652344 279.890625 853.636719 280.3125 L 852.835938 303.402344 C 852.804688 304.269531 852.101562 304.953125 851.230469 304.953125 C 851.222656 304.953125 851.179688 304.949219 851.171875 304.949219 Z M 851.171875 304.949219 " fill-opacity="1" fill-rule="nonzero"/><path fill="#19055b" d="M 778.652344 239.707031 C 778.679688 239.707031 778.710938 239.707031 778.738281 239.710938 L 818.683594 242.917969 C 818.933594 242.9375 819.167969 243.050781 819.339844 243.238281 L 852.769531 279.582031 C 852.945312 279.773438 853.039062 280.03125 853.03125 280.292969 L 852.230469 303.382812 C 852.210938 303.921875 851.765625 304.347656 851.230469 304.347656 C 851.21875 304.347656 851.207031 304.347656 851.195312 304.347656 C 850.640625 304.328125 850.207031 303.867188 850.226562 303.3125 L 851.011719 280.632812 L 818.128906 244.878906 L 781 241.898438 L 812.445312 278.628906 C 812.605469 278.820312 812.691406 279.0625 812.683594 279.3125 L 811.882812 303.382812 C 811.867188 303.925781 811.40625 304.347656 810.875 304.347656 C 810.867188 304.347656 810.855469 304.347656 810.847656 304.347656 C 810.292969 304.328125 809.859375 303.867188 809.878906 303.316406 L 810.667969 279.636719 L 777.898438 241.355469 C 777.632812 241.046875 777.582031 240.613281 777.765625 240.25 C 777.9375 239.917969 778.28125 239.707031 778.652344 239.707031 M 778.652344 238.5 C 777.820312 238.5 777.070312 238.960938 776.6875 239.703125 C 776.28125 240.5 776.394531 241.457031 776.976562 242.140625 L 809.441406 280.0625 L 808.671875 303.273438 C 808.652344 303.863281 808.863281 304.425781 809.265625 304.855469 C 809.667969 305.285156 810.21875 305.535156 810.808594 305.554688 L 810.875 305.554688 C 812.058594 305.554688 813.054688 304.597656 813.09375 303.421875 L 813.894531 279.351562 C 813.910156 278.800781 813.722656 278.269531 813.367188 277.847656 L 783.820312 243.335938 L 817.558594 246.042969 L 849.785156 281.085938 L 849.019531 303.273438 C 848.996094 303.859375 849.207031 304.421875 849.613281 304.851562 C 850.015625 305.285156 850.5625 305.53125 851.152344 305.554688 C 851.179688 305.554688 851.203125 305.554688 851.230469 305.554688 C 852.425781 305.554688 853.398438 304.617188 853.441406 303.425781 L 854.242188 280.335938 C 854.261719 279.75 854.054688 279.195312 853.660156 278.765625 L 820.230469 242.421875 C 819.851562 242.011719 819.335938 241.757812 818.777344 241.714844 L 778.835938 238.507812 C 778.78125 238.503906 778.71875 238.5 778.652344 238.5 Z M 778.652344 238.5 " fill-opacity="1" fill-rule="nonzero"/><path fill="#f6bd3b" d="M 840.269531 172.476562 C 839.382812 172.476562 838.664062 171.757812 838.664062 170.875 C 838.664062 169.988281 839.382812 169.269531 840.269531 169.269531 L 846.207031 169.269531 L 854.007812 145.230469 C 854.222656 144.566406 854.835938 144.121094 855.535156 144.121094 C 855.703125 144.121094 855.871094 144.144531 856.03125 144.199219 C 856.441406 144.328125 856.773438 144.613281 856.96875 144.992188 C 857.164062 145.375 857.199219 145.808594 857.066406 146.21875 L 848.90625 171.367188 C 848.691406 172.03125 848.074219 172.476562 847.375 172.476562 Z M 840.269531 172.476562 " fill-opacity="1" fill-rule="nonzero"/><path fill="#19055b" d="M 855.535156 144.722656 C 855.636719 144.722656 855.742188 144.738281 855.84375 144.773438 C 856.371094 144.941406 856.660156 145.507812 856.492188 146.03125 L 848.332031 171.183594 C 848.195312 171.59375 847.8125 171.875 847.375 171.875 L 840.269531 171.875 C 839.714844 171.875 839.269531 171.425781 839.269531 170.875 C 839.269531 170.320312 839.714844 169.875 840.269531 169.875 L 846.648438 169.875 L 854.582031 145.414062 C 854.71875 144.992188 855.113281 144.722656 855.535156 144.722656 M 855.535156 143.515625 C 854.574219 143.515625 853.726562 144.128906 853.433594 145.042969 L 845.765625 168.667969 L 840.269531 168.667969 C 839.050781 168.667969 838.058594 169.65625 838.058594 170.875 C 838.058594 172.089844 839.050781 173.082031 840.269531 173.082031 L 847.375 173.082031 C 848.339844 173.082031 849.183594 172.464844 849.480469 171.550781 L 857.640625 146.402344 C 857.824219 145.84375 857.777344 145.246094 857.507812 144.71875 C 857.238281 144.195312 856.78125 143.804688 856.21875 143.625 C 855.996094 143.554688 855.765625 143.515625 855.535156 143.515625 Z M 855.535156 143.515625 " fill-opacity="1" fill-rule="nonzero"/><path fill="#f6bd3b" d="M 822.511719 245.832031 C 822.464844 245.832031 822.414062 245.828125 822.367188 245.824219 L 677.007812 232.832031 C 676.203125 232.757812 675.574219 232.097656 675.542969 231.292969 L 673.023438 165.625 C 672.988281 164.742188 673.679688 163.996094 674.566406 163.960938 C 674.574219 163.960938 674.621094 163.960938 674.628906 163.960938 C 675.496094 163.960938 676.203125 164.636719 676.234375 165.503906 L 678.703125 229.761719 L 821.273438 242.507812 L 842.800781 153.589844 C 842.976562 152.867188 843.617188 152.363281 844.363281 152.363281 C 844.492188 152.363281 844.617188 152.378906 844.742188 152.410156 C 845.605469 152.617188 846.136719 153.484375 845.925781 154.34375 L 824.070312 244.605469 C 823.898438 245.328125 823.253906 245.832031 822.511719 245.832031 Z M 822.511719 245.832031 " fill-opacity="1" fill-rule="nonzero"/><path fill="#19055b" d="M 844.363281 152.96875 C 844.441406 152.96875 844.519531 152.976562 844.601562 152.996094 C 845.136719 153.125 845.46875 153.664062 845.339844 154.203125 L 823.484375 244.460938 C 823.375 244.914062 822.96875 245.226562 822.511719 245.226562 C 822.480469 245.226562 822.449219 245.226562 822.417969 245.222656 L 677.058594 232.230469 C 676.558594 232.183594 676.167969 231.773438 676.148438 231.273438 L 673.625 165.601562 C 673.605469 165.050781 674.035156 164.585938 674.589844 164.566406 C 674.601562 164.5625 674.617188 164.5625 674.628906 164.5625 C 675.160156 164.5625 675.609375 164.988281 675.628906 165.527344 L 678.117188 230.316406 L 821.738281 243.15625 L 843.390625 153.734375 C 843.5 153.273438 843.910156 152.96875 844.363281 152.96875 M 844.363281 151.761719 C 843.339844 151.761719 842.453125 152.453125 842.214844 153.449219 L 820.804688 241.859375 L 679.285156 229.210938 L 676.839844 165.480469 C 676.792969 164.289062 675.824219 163.359375 674.628906 163.359375 C 674.601562 163.359375 674.570312 163.359375 674.539062 163.359375 C 673.953125 163.382812 673.40625 163.632812 673.003906 164.066406 C 672.601562 164.496094 672.394531 165.058594 672.417969 165.648438 L 674.9375 231.316406 C 674.980469 232.425781 675.847656 233.332031 676.953125 233.429688 L 822.3125 246.425781 C 822.382812 246.433594 822.445312 246.433594 822.511719 246.433594 C 823.535156 246.433594 824.417969 245.738281 824.660156 244.746094 L 846.515625 154.484375 C 846.652344 153.914062 846.558594 153.320312 846.253906 152.816406 C 845.945312 152.3125 845.457031 151.960938 844.882812 151.824219 C 844.714844 151.78125 844.539062 151.761719 844.363281 151.761719 Z M 844.363281 151.761719 " fill-opacity="1" fill-rule="nonzero"/><path fill="#f6bd3b" d="M 674.628906 167.167969 C 673.785156 167.167969 673.082031 166.511719 673.023438 165.671875 C 672.996094 165.246094 673.132812 164.832031 673.417969 164.511719 C 673.699219 164.1875 674.089844 163.992188 674.519531 163.964844 L 852.929688 151.828125 C 852.964844 151.824219 853 151.824219 853.035156 151.824219 C 853.878906 151.824219 854.585938 152.480469 854.640625 153.316406 C 854.671875 153.746094 854.53125 154.160156 854.25 154.480469 C 853.964844 154.804688 853.574219 154.996094 853.148438 155.027344 L 674.738281 167.164062 C 674.699219 167.167969 674.664062 167.167969 674.628906 167.167969 Z M 674.628906 167.167969 " fill-opacity="1" fill-rule="nonzero"/><path fill="#19055b" d="M 853.035156 152.425781 C 853.558594 152.425781 854 152.828125 854.039062 153.359375 C 854.074219 153.910156 853.660156 154.386719 853.105469 154.425781 L 674.695312 166.5625 C 674.671875 166.5625 674.648438 166.566406 674.628906 166.566406 C 674.105469 166.566406 673.664062 166.160156 673.628906 165.632812 C 673.589844 165.082031 674.007812 164.605469 674.558594 164.566406 L 852.96875 152.429688 C 852.992188 152.425781 853.011719 152.425781 853.035156 152.425781 M 853.035156 151.21875 C 852.988281 151.21875 852.941406 151.222656 852.894531 151.226562 L 674.476562 163.363281 C 673.886719 163.402344 673.347656 163.667969 672.960938 164.113281 C 672.570312 164.558594 672.378906 165.125 672.421875 165.714844 C 672.5 166.867188 673.46875 167.769531 674.628906 167.769531 C 674.675781 167.769531 674.726562 167.769531 674.777344 167.765625 L 853.1875 155.628906 C 853.777344 155.589844 854.316406 155.320312 854.703125 154.878906 C 855.09375 154.433594 855.285156 153.863281 855.246094 153.277344 C 855.167969 152.125 854.195312 151.21875 853.035156 151.21875 Z M 853.035156 151.21875 " fill-opacity="1" fill-rule="nonzero"/><path fill="#f28a8d" d="M 673.980469 175.464844 C 673.832031 175.464844 673.6875 175.410156 673.578125 175.308594 C 673.457031 175.203125 673.386719 175.050781 673.378906 174.890625 L 673.019531 167.554688 C 673.003906 167.226562 673.257812 166.945312 673.585938 166.921875 C 673.585938 166.921875 689.480469 165.933594 689.492188 165.933594 C 689.640625 165.933594 689.789062 165.988281 689.898438 166.09375 C 690.019531 166.203125 690.089844 166.359375 690.097656 166.523438 L 690.28125 173.867188 C 690.289062 174.191406 690.035156 174.464844 689.710938 174.484375 C 689.710938 174.484375 673.992188 175.464844 673.980469 175.464844 Z M 673.980469 175.464844 " fill-opacity="1" fill-rule="nonzero"/><path fill="#19055b" d="M 689.492188 166.535156 L 689.675781 173.882812 L 673.980469 174.859375 L 673.625 167.527344 L 689.492188 166.535156 M 689.492188 165.332031 C 689.464844 165.332031 689.441406 165.332031 689.414062 165.332031 L 673.550781 166.320312 C 672.890625 166.363281 672.386719 166.925781 672.417969 167.585938 L 672.773438 174.917969 C 672.789062 175.242188 672.933594 175.542969 673.175781 175.757812 C 673.398438 175.957031 673.683594 176.066406 673.980469 176.066406 C 674.007812 176.066406 674.03125 176.066406 674.058594 176.0625 L 689.75 175.085938 C 690.398438 175.046875 690.898438 174.5 690.882812 173.851562 L 690.699219 166.507812 C 690.691406 166.179688 690.550781 165.867188 690.308594 165.648438 C 690.085938 165.441406 689.792969 165.332031 689.492188 165.332031 Z M 689.492188 165.332031 " fill-opacity="1" fill-rule="nonzero"/><path fill="#f28a8d" d="M 672.203125 168.257812 C 671.886719 168.257812 671.621094 168.011719 671.601562 167.695312 L 671.363281 163.910156 C 671.351562 163.75 671.40625 163.59375 671.511719 163.472656 C 671.621094 163.355469 671.769531 163.28125 671.929688 163.273438 C 671.929688 163.273438 690.617188 162.109375 690.628906 162.109375 C 690.945312 162.109375 691.214844 162.355469 691.234375 162.671875 L 691.46875 166.457031 C 691.480469 166.617188 691.425781 166.773438 691.320312 166.894531 C 691.214844 167.011719 691.0625 167.085938 690.902344 167.097656 C 690.902344 167.097656 672.214844 168.257812 672.203125 168.257812 Z M 672.203125 168.257812 " fill-opacity="1" fill-rule="nonzero"/><g clip-path="url(#880fdedc8b)"><path fill="#19055b" d="M 690.628906 162.710938 L 690.867188 166.492188 L 672.203125 167.65625 L 671.96875 163.875 L 690.628906 162.710938 M 690.628906 161.503906 C 690.605469 161.503906 690.578125 161.503906 690.554688 161.507812 L 671.890625 162.667969 C 671.570312 162.691406 671.273438 162.835938 671.058594 163.074219 C 670.847656 163.316406 670.738281 163.628906 670.757812 163.949219 L 670.996094 167.730469 C 671.035156 168.371094 671.570312 168.863281 672.203125 168.863281 C 672.226562 168.863281 672.253906 168.863281 672.28125 168.859375 L 690.941406 167.699219 C 691.261719 167.679688 691.5625 167.53125 691.773438 167.292969 C 691.984375 167.050781 692.09375 166.738281 692.074219 166.417969 L 691.835938 162.636719 C 691.796875 161.996094 691.265625 161.503906 690.628906 161.503906 Z M 690.628906 161.503906 " fill-opacity="1" fill-rule="nonzero"/></g><path fill="#f6bd3b" d="M 780.265625 243.363281 C 779.984375 243.363281 779.710938 243.289062 779.464844 243.152344 C 778.699219 242.710938 778.429688 241.730469 778.871094 240.964844 L 840.488281 136.746094 C 840.769531 136.253906 841.304688 135.945312 841.878906 135.945312 L 851.964844 135.945312 C 852.851562 135.945312 853.570312 136.664062 853.570312 137.550781 C 853.570312 138.433594 852.851562 139.152344 851.964844 139.152344 L 842.804688 139.152344 L 781.65625 242.5625 C 781.375 243.054688 780.839844 243.363281 780.265625 243.363281 Z M 780.265625 243.363281 " fill-opacity="1" fill-rule="nonzero"/><path fill="#19055b" d="M 851.964844 136.550781 C 852.519531 136.550781 852.96875 136.996094 852.96875 137.550781 C 852.96875 138.101562 852.519531 138.550781 851.964844 138.550781 L 842.460938 138.550781 L 781.136719 242.257812 C 780.949219 242.582031 780.613281 242.761719 780.265625 242.761719 C 780.09375 242.761719 779.925781 242.71875 779.765625 242.628906 C 779.285156 242.355469 779.121094 241.742188 779.394531 241.261719 L 841.007812 137.050781 C 841.1875 136.742188 841.519531 136.550781 841.878906 136.550781 L 851.964844 136.550781 M 851.964844 135.34375 L 841.878906 135.34375 C 841.085938 135.34375 840.351562 135.769531 839.957031 136.453125 L 778.351562 240.652344 C 777.738281 241.71875 778.105469 243.070312 779.164062 243.675781 C 779.5 243.867188 779.878906 243.96875 780.265625 243.96875 C 781.054688 243.96875 781.792969 243.542969 782.183594 242.859375 L 843.148438 139.757812 L 851.964844 139.757812 C 853.183594 139.757812 854.175781 138.765625 854.175781 137.550781 C 854.175781 136.332031 853.183594 135.34375 851.964844 135.34375 Z M 851.964844 135.34375 " fill-opacity="1" fill-rule="nonzero"/><g clip-path="url(#9836a93f13)"><path fill="#f28a8d" d="M 855.535156 146.328125 C 855.378906 146.328125 855.21875 146.261719 855.105469 146.144531 L 845.859375 136.714844 C 845.699219 136.550781 845.644531 136.3125 845.71875 136.097656 C 845.789062 135.882812 845.976562 135.726562 846.203125 135.695312 L 865.886719 132.839844 C 866.105469 132.804688 866.332031 132.789062 866.554688 132.789062 C 868.199219 132.789062 869.734375 133.671875 870.5625 135.09375 C 871.253906 136.277344 871.382812 137.695312 870.914062 138.984375 C 870.445312 140.277344 869.4375 141.285156 868.148438 141.757812 L 855.746094 146.289062 C 855.675781 146.316406 855.605469 146.328125 855.535156 146.328125 Z M 855.535156 146.328125 " fill-opacity="1" fill-rule="nonzero"/><path fill="#19055b" d="M 866.554688 133.394531 C 867.976562 133.394531 869.3125 134.144531 870.039062 135.394531 C 871.300781 137.558594 870.292969 140.328125 867.941406 141.191406 L 855.535156 145.722656 L 846.289062 136.292969 L 865.972656 133.4375 C 866.167969 133.40625 866.363281 133.394531 866.554688 133.394531 M 866.554688 132.1875 C 866.300781 132.1875 866.046875 132.207031 865.796875 132.242188 L 846.117188 135.097656 C 845.667969 135.164062 845.289062 135.476562 845.144531 135.90625 C 845 136.335938 845.109375 136.8125 845.425781 137.136719 L 854.671875 146.566406 C 854.902344 146.804688 855.21875 146.929688 855.539062 146.929688 C 855.675781 146.929688 855.816406 146.90625 855.953125 146.855469 L 868.355469 142.324219 C 869.816406 141.789062 870.953125 140.648438 871.484375 139.191406 C 872.011719 137.734375 871.867188 136.128906 871.085938 134.789062 C 870.152344 133.183594 868.414062 132.1875 866.554688 132.1875 Z M 866.554688 132.1875 " fill-opacity="1" fill-rule="nonzero"/></g><path fill="#19055b" d="M 736.972656 278.195312 L 722.941406 278.195312 C 722.605469 278.195312 722.335938 277.925781 722.335938 277.59375 C 722.335938 277.257812 722.605469 276.988281 722.941406 276.988281 L 736.972656 276.988281 C 737.304688 276.988281 737.578125 277.257812 737.578125 277.59375 C 737.578125 277.925781 737.304688 278.195312 736.972656 278.195312 Z M 736.972656 278.195312 " fill-opacity="1" fill-rule="nonzero"/><g fill="#19055b" fill-opacity="1"><g transform="translate(75.654567, 301.579631)"><g><path d="M 75.039062 -46.636719 C 75.039062 -64.550781 62.53125 -76.734375 44.378906 -76.734375 C 21.945312 -76.734375 7.585938 -59.222656 7.585938 -36.46875 C 7.585938 -13.3125 22.1875 1.773438 44.378906 1.773438 C 61.160156 1.773438 73.910156 -8.472656 75.199219 -21.300781 C 75.28125 -22.671875 74.796875 -23.800781 73.425781 -23.800781 C 72.457031 -23.800781 71.8125 -23.238281 71.085938 -21.785156 C 68.582031 -12.992188 59.304688 -6.453125 47.523438 -6.453125 C 30.5 -6.453125 18.71875 -18.398438 18.558594 -40.261719 L 67.375 -40.261719 C 72.375 -40.261719 75.039062 -42.441406 75.039062 -46.636719 Z M 43.007812 -71.972656 C 55.191406 -71.972656 63.015625 -62.371094 63.015625 -47.847656 C 63.015625 -45.589844 61.726562 -44.457031 59.0625 -44.457031 L 18.71875 -44.457031 C 20.011719 -61 29.53125 -71.972656 43.007812 -71.972656 Z M 43.007812 -71.972656 "/></g></g></g><g fill="#19055b" fill-opacity="1"><g transform="translate(158.110034, 301.579631)"><g><path d="M 99.730469 -27.351562 C 99.730469 -40.988281 88.027344 -51.476562 68.421875 -53.816406 C 85.203125 -57.609375 93.273438 -68.339844 93.273438 -81.171875 C 93.273438 -100.050781 77.539062 -112.960938 49.058594 -112.960938 L 12.75 -112.960938 C 10.652344 -112.960938 9.761719 -112.15625 9.761719 -110.863281 C 9.761719 -109.652344 10.488281 -108.847656 12.507812 -108.441406 L 18.476562 -107.472656 C 21.058594 -106.992188 22.511719 -105.617188 22.511719 -103.441406 L 22.511719 -9.519531 C 22.511719 -7.34375 21.058594 -5.972656 18.476562 -5.488281 L 12.507812 -4.519531 C 10.488281 -4.113281 9.761719 -3.308594 9.761719 -2.097656 C 9.761719 -0.808594 10.652344 0 12.75 0 L 59.464844 0 C 85.6875 0 99.730469 -11.375 99.730469 -27.351562 Z M 47.6875 -108.28125 C 69.308594 -108.28125 80.445312 -97.066406 80.445312 -80.765625 C 80.445312 -65.277344 70.519531 -55.269531 53.496094 -55.269531 L 35.179688 -55.269531 L 35.179688 -108.28125 Z M 53.816406 -50.914062 C 75.523438 -50.914062 86.335938 -41.3125 86.335938 -27.515625 C 86.335938 -14.199219 76.734375 -4.679688 57.207031 -4.679688 L 44.378906 -4.679688 C 38.085938 -4.679688 35.179688 -6.777344 35.179688 -11.054688 L 35.179688 -50.914062 Z M 53.816406 -50.914062 "/></g></g></g><g fill="#19055b" fill-opacity="1"><g transform="translate(262.59128, 301.579631)"><g><path d="M 9.601562 -16.703125 C 9.601562 -5.164062 18.878906 1.773438 32.113281 1.773438 C 41.632812 1.773438 50.75 -1.9375 57.449219 -8.554688 C 57.851562 -1.53125 61.886719 1.773438 68.90625 1.773438 C 76.007812 1.773438 79.800781 -2.984375 79.800781 -6.859375 C 79.800781 -8.070312 79.316406 -8.714844 78.507812 -8.714844 C 77.699219 -8.714844 77.21875 -8.148438 76.734375 -7.503906 C 75.925781 -6.292969 75.121094 -4.597656 72.132812 -4.597656 C 69.714844 -4.597656 68.179688 -6.132812 68.179688 -10.085938 L 68.179688 -55.433594 C 68.179688 -68.339844 60.03125 -76.652344 43.167969 -76.652344 C 24.769531 -76.652344 13.476562 -66.808594 13.476562 -57.125 C 13.476562 -53.414062 15.734375 -50.992188 19.445312 -50.992188 C 23.640625 -50.992188 26.382812 -53.089844 26.382812 -57.046875 L 26.382812 -62.53125 C 26.382812 -68.019531 31.0625 -72.777344 40.988281 -72.777344 C 51.15625 -72.777344 56.882812 -66.890625 56.882812 -55.835938 L 56.882812 -34.9375 C 52.125 -36.632812 46.394531 -37.84375 40.101562 -37.84375 C 21.058594 -37.84375 9.601562 -28.804688 9.601562 -16.703125 Z M 21.625 -18.398438 C 21.625 -27.917969 29.046875 -33.96875 41.554688 -33.96875 C 47.28125 -33.96875 52.285156 -32.679688 56.882812 -30.984375 L 56.882812 -12.828125 C 51.234375 -7.101562 43.894531 -4.035156 36.390625 -4.035156 C 27.835938 -4.035156 21.625 -9.199219 21.625 -18.398438 Z M 21.625 -18.398438 "/></g></g></g><g fill="#19055b" fill-opacity="1"><g transform="translate(347.386487, 301.579631)"><g><path d="M 66 -68.988281 C 67.375 -70.921875 67.9375 -72.132812 67.9375 -73.183594 C 67.9375 -74.554688 67.050781 -75.359375 64.308594 -75.359375 L 21.300781 -75.359375 C 17.671875 -75.359375 16.378906 -77.378906 14.605469 -77.378906 C 13.152344 -77.378906 12.265625 -76.570312 11.617188 -73.746094 L 8.148438 -58.660156 C 7.746094 -56.964844 8.472656 -55.835938 10.003906 -55.671875 C 11.296875 -55.433594 12.183594 -55.996094 13.070312 -57.773438 L 15.574219 -63.015625 C 18.636719 -69.148438 20.816406 -70.84375 26.789062 -70.84375 L 54.464844 -70.84375 L 7.421875 -6.292969 C 6.050781 -4.355469 5.488281 -3.226562 5.488281 -2.097656 C 5.488281 -0.808594 6.375 0 9.117188 0 L 54.625 0 C 58.335938 0 59.789062 2.257812 61.5625 2.257812 C 62.933594 2.257812 63.660156 1.453125 64.386719 -1.210938 L 69.066406 -19.527344 C 69.472656 -21.140625 68.824219 -22.269531 67.375 -22.351562 C 66.242188 -22.511719 65.277344 -22.027344 64.308594 -20.332031 L 60.191406 -12.828125 C 56.238281 -5.730469 54.300781 -4.4375 48.167969 -4.4375 L 18.960938 -4.4375 Z M 66 -68.988281 "/></g></g></g><g fill="#19055b" fill-opacity="1"><g transform="translate(421.451189, 301.579631)"><g><path d="M 9.601562 -16.703125 C 9.601562 -5.164062 18.878906 1.773438 32.113281 1.773438 C 41.632812 1.773438 50.75 -1.9375 57.449219 -8.554688 C 57.851562 -1.53125 61.886719 1.773438 68.90625 1.773438 C 76.007812 1.773438 79.800781 -2.984375 79.800781 -6.859375 C 79.800781 -8.070312 79.316406 -8.714844 78.507812 -8.714844 C 77.699219 -8.714844 77.21875 -8.148438 76.734375 -7.503906 C 75.925781 -6.292969 75.121094 -4.597656 72.132812 -4.597656 C 69.714844 -4.597656 68.179688 -6.132812 68.179688 -10.085938 L 68.179688 -55.433594 C 68.179688 -68.339844 60.03125 -76.652344 43.167969 -76.652344 C 24.769531 -76.652344 13.476562 -66.808594 13.476562 -57.125 C 13.476562 -53.414062 15.734375 -50.992188 19.445312 -50.992188 C 23.640625 -50.992188 26.382812 -53.089844 26.382812 -57.046875 L 26.382812 -62.53125 C 26.382812 -68.019531 31.0625 -72.777344 40.988281 -72.777344 C 51.15625 -72.777344 56.882812 -66.890625 56.882812 -55.835938 L 56.882812 -34.9375 C 52.125 -36.632812 46.394531 -37.84375 40.101562 -37.84375 C 21.058594 -37.84375 9.601562 -28.804688 9.601562 -16.703125 Z M 21.625 -18.398438 C 21.625 -27.917969 29.046875 -33.96875 41.554688 -33.96875 C 47.28125 -33.96875 52.285156 -32.679688 56.882812 -30.984375 L 56.882812 -12.828125 C 51.234375 -7.101562 43.894531 -4.035156 36.390625 -4.035156 C 27.835938 -4.035156 21.625 -9.199219 21.625 -18.398438 Z M 21.625 -18.398438 "/></g></g></g><g fill="#19055b" fill-opacity="1"><g transform="translate(506.246396, 301.579631)"><g><path d="M 9.601562 -16.703125 C 9.601562 -5.164062 18.878906 1.773438 32.113281 1.773438 C 41.632812 1.773438 50.75 -1.9375 57.449219 -8.554688 C 57.851562 -1.53125 61.886719 1.773438 68.90625 1.773438 C 76.007812 1.773438 79.800781 -2.984375 79.800781 -6.859375 C 79.800781 -8.070312 79.316406 -8.714844 78.507812 -8.714844 C 77.699219 -8.714844 77.21875 -8.148438 76.734375 -7.503906 C 75.925781 -6.292969 75.121094 -4.597656 72.132812 -4.597656 C 69.714844 -4.597656 68.179688 -6.132812 68.179688 -10.085938 L 68.179688 -55.433594 C 68.179688 -68.339844 60.03125 -76.652344 43.167969 -76.652344 C 24.769531 -76.652344 13.476562 -66.808594 13.476562 -57.125 C 13.476562 -53.414062 15.734375 -50.992188 19.445312 -50.992188 C 23.640625 -50.992188 26.382812 -53.089844 26.382812 -57.046875 L 26.382812 -62.53125 C 26.382812 -68.019531 31.0625 -72.777344 40.988281 -72.777344 C 51.15625 -72.777344 56.882812 -66.890625 56.882812 -55.835938 L 56.882812 -34.9375 C 52.125 -36.632812 46.394531 -37.84375 40.101562 -37.84375 C 21.058594 -37.84375 9.601562 -28.804688 9.601562 -16.703125 Z M 21.625 -18.398438 C 21.625 -27.917969 29.046875 -33.96875 41.554688 -33.96875 C 47.28125 -33.96875 52.285156 -32.679688 56.882812 -30.984375 L 56.882812 -12.828125 C 51.234375 -7.101562 43.894531 -4.035156 36.390625 -4.035156 C 27.835938 -4.035156 21.625 -9.199219 21.625 -18.398438 Z M 21.625 -18.398438 "/></g></g></g><g fill="#19055b" fill-opacity="1"><g transform="translate(591.04163, 301.579631)"><g><path d="M 29.773438 -72.617188 C 29.613281 -74.957031 28.804688 -75.84375 27.109375 -75.84375 C 26.0625 -75.84375 24.527344 -75.601562 21.382812 -74.472656 L 9.84375 -70.519531 C 7.828125 -69.875 7.179688 -69.230469 7.179688 -68.179688 C 7.179688 -67.210938 7.828125 -66.648438 9.601562 -66.484375 L 16.296875 -66.324219 C 18.15625 -66.242188 18.878906 -65.277344 18.878906 -63.175781 L 18.878906 -9.359375 C 18.878906 -6.859375 17.589844 -5.566406 15.25 -5.082031 L 10.8125 -4.195312 C 9.035156 -3.792969 8.230469 -3.148438 8.230469 -2.015625 C 8.230469 -0.726562 9.199219 0 11.054688 0 L 41.875 0 C 43.8125 0 44.863281 -0.726562 44.863281 -2.015625 C 44.863281 -3.390625 43.894531 -4.035156 41.957031 -4.355469 L 34.292969 -5.246094 C 31.546875 -5.648438 30.257812 -6.9375 30.257812 -9.359375 L 30.257812 -41.148438 C 30.257812 -60.03125 39.132812 -69.714844 47.523438 -69.714844 C 51.882812 -69.714844 53.65625 -67.855469 53.65625 -63.902344 L 53.65625 -61.402344 C 53.65625 -57.367188 55.996094 -55.027344 59.789062 -55.027344 C 63.5 -55.027344 66.082031 -58.09375 66.082031 -63.339844 C 66.082031 -71.40625 60.59375 -76.734375 51.398438 -76.734375 C 42.765625 -76.734375 34.292969 -70.199219 30.097656 -58.335938 Z M 29.773438 -72.617188 "/></g></g></g><path stroke-linecap="butt" transform="matrix(0.748802, 0, 0, 0.748614, 185.340969, 335.501724)" fill="none" stroke-linejoin="miter" d="M -0.0015033 2.001401 L 992.761179 2.001401 " stroke="#7bc9c0" stroke-width="4" stroke-opacity="1" stroke-miterlimit="4"/></svg>